<svg xmlns="http://www.w3.org/2000/svg" viewBox="0 0 114.56 122.83"><title>logo-tensorflow</title><g id="Layer_2" data-name="Layer 2"><g id="svg8"><g id="layer1"><g id="g4550"><path id="path4508" d="M65.46,18.9V37.79l32.73,18.9V37.79ZM0,37.79v18.9l16.37,9.45V47.24Zm49.1,9.45L32.73,56.69v56.69l16.37,9.45V85l16.36,9.45V75.59L49.1,66.14Z" fill="#e55b2d"/><path id="path4491" d="M65.46,18.9,16.37,47.24v18.9L49.1,47.24v18.9l16.36-9.45Zm49.1,9.45L98.19,37.79v18.9l16.37-9.45ZM81.83,66.14,65.46,75.59v18.9L81.83,85ZM65.46,94.49,49.1,85v37.79l16.36-9.45Z" fill="#ed8e24"/><path id="path4506" d="M65.46,0,0,37.79l16.37,9.45L65.46,18.9,98.19,37.79l16.37-9.44Zm0,56.69L49.1,66.14l16.36,9.45,16.37-9.45Z" fill="#f8bf3c"/></g></g></g></g></svg>