<svg xmlns="http://www.w3.org/2000/svg" viewBox="0 0 1234.67 566.56"><title>bg-k</title><g id="Layer_2" data-name="Layer 2"><g id="Layer_1-2" data-name="Layer 1"><path d="M1234.56,324a17.22,17.22,0,0,0-32.47-5.88L1047.14,293.2a5.94,5.94,0,0,0,0-1.19,4.34,4.34,0,0,0-.13-.72l125.77-29.44a9.2,9.2,0,0,0,.49,1.68,9.57,9.57,0,1,0,2.07-10.27l-57.55-60a9.57,9.57,0,0,0-12.08-14.84l-93.4-136.93a9.58,9.58,0,1,0-14.74-1.77L869.71,100.07a6.22,6.22,0,0,0-11.05,5.6,6.47,6.47,0,0,0,1,1.72L770.45,214a17.13,17.13,0,0,0-3.06-2.32L826.9,69.86a6.22,6.22,0,1,0-3.85-4.54L520.75,138a9.56,9.56,0,0,0-17.13-3.35L315.11,24.79a17.23,17.23,0,1,0-27.19,5.06L197.16,140.18a9.54,9.54,0,0,0-12.15,5l-91-9.53a6.22,6.22,0,1,0-11.93,1.43A6.21,6.21,0,0,0,88,141l3.37,21.47-57.4,9.33a18.52,18.52,0,0,0-.7-2.23A17.24,17.24,0,1,0,23.63,192,17.69,17.69,0,0,0,27.16,190l93.09,165.29a6.18,6.18,0,0,0-3.32,5.21L60.68,386a9.55,9.55,0,1,0,1,7.89l79.59,5.21a17.87,17.87,0,0,0,.06,3,17.27,17.27,0,1,0,5-14.13L128,364.65a6.22,6.22,0,0,0,.88-6.13A6.5,6.5,0,0,0,128,357l93.11-34.92a9.55,9.55,0,0,0,8.25,4.14L330.34,529a9.58,9.58,0,1,0,8.48-.35L402.2,393.12a9.43,9.43,0,0,0,4.41.55,9.57,9.57,0,1,0-2.15-19,9.44,9.44,0,0,0-5.15,2.24l-42.95-83,110.42-22.26a9.19,9.19,0,0,0,.47,1.58,9.45,9.45,0,0,0,3.14,4.09l-29.14,61.61a6.14,6.14,0,0,0-2.72.42,6.23,6.23,0,1,0,5.33.34L483.14,297l61.73,187.73a6.21,6.21,0,1,0,7.3,2.89l92.07-92.07a9.61,9.61,0,0,0,4.13,4L619,529.33a6.13,6.13,0,0,0-2.31-.18,6.22,6.22,0,1,0,6.19,9.12L960.9,555.46a9.39,9.39,0,0,0-.07,2.6,9.57,9.57,0,1,0,8.92-10.61L956.62,503,1140.83,528a6.29,6.29,0,0,0-.17,2.3,6.22,6.22,0,1,0,9.84-5.72L1213,342.59a17,17,0,0,0,6.35.48A17.23,17.23,0,0,0,1234.56,324Zm-32.91-4.94a17.14,17.14,0,0,0-1.33,8.8,18.1,18.1,0,0,0,.31,1.84l-154.23-7.56-4.92-23.25h.16a6.24,6.24,0,0,0,5.34-4.71Zm-27-65.07a9.62,9.62,0,0,0-2.05,6.85l-125.93,29.47a6.22,6.22,0,1,0-6.22,8.58l4.91,23.19-136.14-6.68a9.59,9.59,0,0,0-1.34-3.8l195.75-120.25a9.56,9.56,0,0,0,11.45,3.49,9.41,9.41,0,0,0,1.88-1ZM1071.3,458.23l-163.15-137a9.6,9.6,0,0,0,1.16-4.75l136.27,6.69,28.21,133.17A6.2,6.2,0,0,0,1071.3,458.23ZM651.56,381.48a9.65,9.65,0,0,0-2.42.61L556.5,217.47l21.18-23a6.21,6.21,0,0,0,10.43-3.1l153.31,33a17.24,17.24,0,0,0,8.54,17l-95,140.37A9.44,9.44,0,0,0,651.56,381.48Zm-171.87-103a9.55,9.55,0,0,0,3.8-15L552.3,212l3,5.29L483.56,295.1l-5.32-16.16A8.61,8.61,0,0,0,479.69,278.5Zm73.42-67.06,23.82-17.82.09.12-21,22.81Zm130.53-74.82a6.24,6.24,0,0,0,5.35,1.64l59.6,74.1a17.24,17.24,0,0,0-7,11l-153.34-33a6.18,6.18,0,0,0-.43-2.66c-.11-.26-.24-.51-.37-.75Zm81.29,105.79A17.22,17.22,0,0,0,774.54,220a17,17,0,0,0-3.39-5.33L860.41,108.1a6.22,6.22,0,0,0,3.75,1.47l34.48,197.55a9.57,9.57,0,0,0-4.42,17.32L795.86,476.11a6.43,6.43,0,0,0-2.41-.32L760.65,243.5A16.94,16.94,0,0,0,764.93,242.41Zm35,238.44a6.2,6.2,0,0,0-3.16-4.33L895.07,325a9.51,9.51,0,0,0,5.74,1.17,9.91,9.91,0,0,0,2.27-.55l52.14,176.26Zm305-301.8a9.58,9.58,0,0,0-2.28,10.47,10.2,10.2,0,0,0,.47,1L907.32,310.79a9.57,9.57,0,0,0-3.33-2.73L1004.85,44.12a9.48,9.48,0,0,0,4.34-.64,9.65,9.65,0,0,0,2.34-1.35ZM998.13,40.53a9.59,9.59,0,0,0,5.7,3.45L903.07,307.66a9.57,9.57,0,0,0-3.43-.61L865.17,109.53a6.41,6.41,0,0,0,1.58-.39,6.23,6.23,0,0,0,3.47-8.09l-.05-.1ZM823.33,66.28l0,.09A6.26,6.26,0,0,0,826,69.43L766.51,211.15a17.18,17.18,0,0,0-14.36-.74,16.56,16.56,0,0,0-2.72,1.39L690.05,138l.2-.07a6.22,6.22,0,1,0-8.09-3.47,6.35,6.35,0,0,0,.8,1.42l-96.07,50.32a6.22,6.22,0,0,0-10.63,6.21c0,.13.11.25.17.37l-23.82,17.81-35.33-62.78a9.6,9.6,0,0,0,3.65-8.77ZM503.09,135.53a9.51,9.51,0,0,0-.8,7.46L375.36,180a6.22,6.22,0,0,0-7.43-2.24,6.09,6.09,0,0,0-2.69,2.08l-94.85-58a6.17,6.17,0,0,0-2.72-6.66l28.6-81.05a17.19,17.19,0,0,0,18.38-8.45Zm-233-12.71,94.63,57.88a6.2,6.2,0,0,0-.26,5.12L321.78,227l-52.92-102.3A6.23,6.23,0,0,0,270.08,122.82Zm18.58-92.3a17.28,17.28,0,0,0,6.64,3.37L266.78,114.7a6.22,6.22,0,1,0-.13,11.5,6,6,0,0,0,1.44-.82L321,227.72l-85.19,82.19a9.58,9.58,0,0,0-10.34-2.13,5.83,5.83,0,0,0-.62.28L195.48,158.52a9.28,9.28,0,0,0,1.81-.52,9.56,9.56,0,0,0,.82-17.39ZM238.6,316.57a9.41,9.41,0,0,0-2.11-5.91l85-82,33.36,64.49ZM89,140.91a7.48,7.48,0,0,0,1.18-.34,6.24,6.24,0,0,0,3.62-3.92l90.86,9.52a9.09,9.09,0,0,0-.29,1.17l-92,15Zm-54.8,31.87,57.32-9.33,30,191.37-.36.11L28,189.44A17.27,17.27,0,0,0,34.17,172.78ZM61.91,392.93a9.5,9.5,0,0,0-.48-5.45c-.08-.2-.18-.38-.27-.57L117,361.61a6,6,0,0,0,.39,1.52,6.21,6.21,0,0,0,8.09,3.47,6.4,6.4,0,0,0,1.91-1.21l18.23,23.36a17.2,17.2,0,0,0-4.25,9.38Zm65.39-36.72a6.23,6.23,0,0,0-4.79-1.57l-30-191.35,91.72-14.92a9.56,9.56,0,0,0,10.29,10.29L224,308.56a9.56,9.56,0,0,0-3.8,11.66c.14.34.3.67.47,1Zm271.26,21.41a9.55,9.55,0,0,0,2.72,15.11l-63.4,135.59a9.45,9.45,0,0,0-4-.41,9.21,9.21,0,0,0-2.62.69L230.47,326.12a9.47,9.47,0,0,0,8.09-8.52l116.78-23.54Zm-42.68-84.69-33.63-65,42.67-41.16a6.22,6.22,0,0,0,11.1-5.52,3.36,3.36,0,0,0-.16-.33l126.77-37A9.56,9.56,0,0,0,515,149.09a9.13,9.13,0,0,0,1.46-.75l35.35,62.82-69,51.59a9.56,9.56,0,0,0-16.18,7.85Zm87,46.27a6.13,6.13,0,0,0-.61-.18l29-61.2a9.52,9.52,0,0,0,6,1.29l5.53,16.83Zm108.7,147.61a6.21,6.21,0,0,0-5.55-2.3l-.19,0L483.92,296.19l71.87-77.95,92.44,164.27a9.56,9.56,0,0,0-5.1,9.56,9.38,9.38,0,0,0,.66,2.55Zm417.15,60.75a9.58,9.58,0,0,0-7.63,6.91L623.24,537.29a6,6,0,0,0,.28-2.65,6.21,6.21,0,0,0-3.62-5L649.3,400A9.57,9.57,0,1,0,655.93,382l94.92-140.2a17.18,17.18,0,0,0,8.8,1.79l32.81,232.33a6.22,6.22,0,1,0,7.6,5.95l155.47,21ZM1149.63,524a6.21,6.21,0,0,0-8.45,3L956.3,502,904,325.19a9.51,9.51,0,0,0,3.62-3.15l163.14,137a6.22,6.22,0,1,0,4.78-3.24,5.37,5.37,0,0,0-.8.15l-28.12-132.81,154.29,7.57a17.19,17.19,0,0,0,11.15,11.56Z" opacity="0.2"/></g></g></svg>