<svg version="1.1" viewBox="0.0 0.0 960.0 528.0" fill="none" stroke="none" stroke-linecap="square" stroke-miterlimit="10" xmlns:xlink="http://www.w3.org/1999/xlink" xmlns="http://www.w3.org/2000/svg"><clipPath id="g70b9dc64b6_0_117.0"><path d="m0 0l960.0 0l0 528.0l-960.0 0l0 -528.0z" clip-rule="nonzero"/></clipPath><g clip-path="url(#g70b9dc64b6_0_117.0)"><path fill="#ffffff" d="m0 0l960.0 0l0 528.0l-960.0 0z" fill-rule="evenodd"/><path fill="#000000" fill-opacity="0.0" d="m38.958004 460.16797l255.55905 0l0 50.48819l-255.55905 0z" fill-rule="evenodd"/><path fill="#6b96f6" d="m53.551754 488.0961l0 6.671875l-3.90625 0l0 -18.953125l7.390625 0q2.140625 0 3.75 0.78125q1.625 0.78125 2.5 2.21875q0.8750038 1.4375 0.8750038 3.28125q0 2.78125 -1.9062538 4.390625q-1.90625 1.609375 -5.28125 1.609375l-3.421875 0zm0 -3.171875l3.484375 0q1.5625 0 2.375 -0.71875q0.8125 -0.734375 0.8125 -2.09375q0 -1.390625 -0.828125 -2.25q-0.8125 -0.859375 -2.265625 -0.875l-3.578125 0l0 5.9375zm17.02193 9.84375l-3.78125 0l0 -20.0l3.78125 0l0 20.0zm11.255051 0q-0.265625 -0.5 -0.375 -1.265625q-1.375 1.53125 -3.5625 1.53125q-2.0625 0 -3.421875 -1.203125q-1.359375 -1.203125 -1.359375 -3.015625q0 -2.25 1.65625 -3.4375q1.65625 -1.203125 4.796875 -1.21875l1.734375 0l0 -0.796875q0 -0.984375 -0.515625 -1.5625q-0.5 -0.59375 -1.578125 -0.59375q-0.9375 0 -1.484375 0.46875q-0.546875 0.453125 -0.546875 1.234375l-3.75 0q0 -1.21875 0.75 -2.25q0.75 -1.046875 2.125 -1.640625q1.390625 -0.59375 3.109375 -0.59375q2.59375 0 4.125 1.3125q1.53125 1.296875 1.53125 3.671875l0 6.109375q0.015625 2.0 0.5625 3.03125l0 0.21875l-3.796875 0zm-3.109375 -2.609375q0.828125 0 1.53125 -0.375q0.703125 -0.375 1.046875 -1.0l0 -2.421875l-1.40625 0q-2.828125 0 -3.015625 1.953125l-0.015625 0.21875q0 0.703125 0.5 1.171875q0.5 0.453125 1.359375 0.453125zm13.744415 -14.9375l0 3.46875l2.40625 0l0 2.75l-2.40625 0l0 7.03125q0 0.78125 0.296875 1.125q0.296875 0.328125 1.140625 0.328125q0.625 0 1.109375 -0.078125l0 2.84375q-1.109375 0.34375 -2.28125 0.34375q-3.953125 0 -4.03125 -4.0l0 -7.59375l-2.0625 0l0 -2.75l2.0625 0l0 -3.46875l3.765625 0zm5.522522 17.546875l0 -11.328125l-2.09375 0l0 -2.75l2.09375 0l0 -1.203125q0 -2.375 1.359375 -3.671875q1.359375 -1.3125 3.8125 -1.3125q0.78125 0 1.90625 0.265625l-0.03125 2.90625q-0.46875 -0.109375 -1.140625 -0.109375q-2.125 0 -2.125 1.984375l0 1.140625l2.796875 0l0 2.75l-2.796875 0l0 11.328125l-3.78125 0zm7.9441833 -7.171875q0 -2.09375 0.796875 -3.734375q0.8125 -1.640625 2.328125 -2.53125q1.515625 -0.90625 3.53125 -0.90625q2.84375 0 4.640625 1.75q1.8125 1.734375 2.015625 4.734375l0.03125 0.96875q0 3.234375 -1.8125 5.203125q-1.8125 1.953125 -4.859375 1.953125q-3.046875 0 -4.859375 -1.953125q-1.8125 -1.953125 -1.8125 -5.3125l0 -0.171875zm3.765625 0.28125q0 2.0 0.75 3.0625q0.75 1.0625 2.15625 1.0625q1.375 0 2.140625 -1.046875q0.765625 -1.0625 0.765625 -3.359375q0 -1.96875 -0.765625 -3.046875q-0.765625 -1.078125 -2.15625 -1.078125q-1.390625 0 -2.140625 1.078125q-0.75 1.0625 -0.75 3.328125zm19.80661 -3.671875q-0.765625 -0.09375 -1.359375 -0.09375q-2.125 0 -2.796875 1.4375l0 9.21875l-3.765625 0l0 -14.078125l3.5625 0l0.109375 1.671875q1.125 -1.9375 3.125 -1.9375q0.625 0 1.171875 0.171875l-0.046875 3.609375zm5.332138 -3.515625l0.125 1.5625q1.5 -1.828125 4.046875 -1.828125q2.71875 0 3.734375 2.140625q1.484375 -2.140625 4.234375 -2.140625q2.28125 0 3.390625 1.34375q1.125 1.328125 1.125 4.0l0 9.0l-3.765625 0l0 -8.984375q0 -1.1875 -0.46875 -1.734375q-0.46875 -0.5625 -1.65625 -0.5625q-1.6875 0 -2.34375 1.609375l0.015625 9.671875l-3.765625 0l0 -8.96875q0 -1.21875 -0.484375 -1.765625q-0.46875 -0.546875 -1.640625 -0.546875q-1.59375 0 -2.3125 1.328125l0 9.953125l-3.765625 0l0 -14.078125l3.53125 0zm27.186295 10.1875q0 -0.6875 -0.6875 -1.078125q-0.6875 -0.40625 -2.1875 -0.71875q-5.03125 -1.046875 -5.03125 -4.265625q0 -1.875 1.546875 -3.125q1.5625 -1.265625 4.078125 -1.265625q2.671875 0 4.28125 1.265625q1.609375 1.265625 1.609375 3.28125l-3.765625 0q0 -0.8125 -0.515625 -1.328125q-0.515625 -0.53125 -1.625 -0.53125q-0.953125 0 -1.46875 0.4375q-0.515625 0.421875 -0.515625 1.078125q0 0.625 0.578125 1.015625q0.59375 0.375 2.0 0.65625q1.40625 0.28125 2.375 0.640625q2.984375 1.09375 2.984375 3.78125q0 1.921875 -1.65625 3.125q-1.65625 1.1875 -4.265625 1.1875q-1.78125 0 -3.15625 -0.625q-1.359375 -0.640625 -2.140625 -1.734375q-0.78125 -1.109375 -0.78125 -2.390625l3.5625 0q0.046875 1.015625 0.734375 1.546875q0.703125 0.53125 1.859375 0.53125q1.078125 0 1.625 -0.40625q0.5625 -0.421875 0.5625 -1.078125zm13.890488 5.515625l-2.796875 0l6.984375 -20.578125l2.796875 0l-6.984375 20.578125zm21.266953 -4.390625q1.046875 0 1.6875 -0.578125q0.65625 -0.578125 0.6875 -1.53125l3.53125 0q-0.015625 1.4375 -0.78125 2.640625q-0.765625 1.1875 -2.109375 1.84375q-1.328125 0.65625 -2.953125 0.65625q-3.015625 0 -4.765625 -1.921875q-1.734375 -1.921875 -1.734375 -5.3125l0 -0.234375q0 -3.265625 1.734375 -5.203125q1.734375 -1.9375 4.75 -1.9375q2.640625 0 4.234375 1.5q1.59375 1.5 1.625 4.0l-3.53125 0q-0.03125 -1.09375 -0.6875 -1.765625q-0.640625 -0.6875 -1.703125 -0.6875q-1.3125 0 -1.984375 0.953125q-0.671875 0.953125 -0.671875 3.109375l0 0.390625q0 2.171875 0.65625 3.125q0.671875 0.953125 2.015625 0.953125zm12.025818 2.765625l-3.78125 0l0 -20.0l3.78125 0l0 20.0zm2.5050507 -7.171875q0 -2.09375 0.796875 -3.734375q0.8125 -1.640625 2.328125 -2.53125q1.515625 -0.90625 3.53125 -0.90625q2.84375 0 4.640625 1.75q1.8125 1.734375 2.015625 4.734375l0.03125 0.96875q0 3.234375 -1.8125 5.203125q-1.8125 1.953125 -4.859375 1.953125q-3.046875 0 -4.859375 -1.953125q-1.8125 -1.953125 -1.8125 -5.3125l0 -0.171875zm3.765625 0.28125q0 2.0 0.75 3.0625q0.75 1.0625 2.15625 1.0625q1.375 0 2.140625 -1.046875q0.765625 -1.0625 0.765625 -3.359375q0 -1.96875 -0.765625 -3.046875q-0.765625 -1.078125 -2.15625 -1.078125q-1.390625 0 -2.140625 1.078125q-0.75 1.0625 -0.75 3.328125zm20.322235 5.453125q-1.390625 1.703125 -3.84375 1.703125q-2.265625 0 -3.46875 -1.296875q-1.1875 -1.3125 -1.203125 -3.828125l0 -9.21875l3.75 0l0 9.09375q0 2.203125 2.015625 2.203125q1.90625 0 2.625 -1.328125l0 -9.96875l3.765625 0l0 14.078125l-3.53125 0l-0.109375 -1.4375zm5.900421 -5.703125q0 -3.296875 1.46875 -5.25q1.484375 -1.953125 4.046875 -1.953125q2.0625 0 3.40625 1.53125l0 -7.1875l3.765625 0l0 20.0l-3.390625 0l-0.1875 -1.5q-1.40625 1.765625 -3.609375 1.765625q-2.5 0 -4.0 -1.953125q-1.5 -1.96875 -1.5 -5.453125zm3.765625 0.265625q0 1.984375 0.6875 3.046875q0.6875 1.046875 2.0 1.046875q1.75 0 2.46875 -1.46875l0 -5.5625q-0.703125 -1.46875 -2.4375 -1.46875q-2.71875 0 -2.71875 4.40625zm19.473282 2.984375q0 -0.6875 -0.6875 -1.078125q-0.6875 -0.40625 -2.1875 -0.71875q-5.03125 -1.046875 -5.03125 -4.265625q0 -1.875 1.546875 -3.125q1.5625 -1.265625 4.078125 -1.265625q2.671875 0 4.28125 1.265625q1.609375 1.265625 1.609375 3.28125l-3.765625 0q0 -0.8125 -0.515625 -1.328125q-0.515625 -0.53125 -1.625 -0.53125q-0.953125 0 -1.46875 0.4375q-0.515625 0.421875 -0.515625 1.078125q0 0.625 0.578125 1.015625q0.59375 0.375 2.0 0.65625q1.40625 0.28125 2.375 0.640625q2.984375 1.09375 2.984375 3.78125q0 1.921875 -1.65625 3.125q-1.65625 1.1875 -4.265625 1.1875q-1.78125 0 -3.15625 -0.625q-1.359375 -0.640625 -2.140625 -1.734375q-0.78125 -1.109375 -0.78125 -2.390625l3.5625 0q0.046875 1.015625 0.734375 1.546875q0.703125 0.53125 1.859375 0.53125q1.078125 0 1.625 -0.40625q0.5625 -0.421875 0.5625 -1.078125z" fill-rule="nonzero"/><path fill="#f6d58e" fill-opacity="0.8378" d="m314.8491 466.25476l0 0c0 -4.4879456 3.6381836 -8.12616 8.126129 -8.12616l89.32251 0c2.155182 0 4.222107 0.85614014 5.746063 2.3800964c1.5239563 1.5239563 2.3800964 3.5908813 2.3800964 5.746063l0 32.5036c0 4.4879456 -3.638214 8.12616 -8.12616 8.12616l-89.32251 0c-4.4879456 0 -8.126129 -3.638214 -8.126129 -8.12616z" fill-rule="evenodd"/><path stroke="#cccccc" stroke-width="1.0" stroke-linejoin="round" stroke-linecap="butt" d="m314.8491 466.25476l0 0c0 -4.4879456 3.6381836 -8.12616 8.126129 -8.12616l89.32251 0c2.155182 0 4.222107 0.85614014 5.746063 2.3800964c1.5239563 1.5239563 2.3800964 3.5908813 2.3800964 5.746063l0 32.5036c0 4.4879456 -3.638214 8.12616 -8.12616 8.12616l-89.32251 0c-4.4879456 0 -8.126129 -3.638214 -8.126129 -8.12616z" fill-rule="evenodd"/><path fill="#000000" d="m360.6545 487.6922q-0.671875 0.953125 -1.875 1.4375q-1.203125 0.484375 -2.8125 0.484375q-1.625 0 -2.890625 -0.765625q-1.25 -0.765625 -1.9375 -2.15625q-0.6875 -1.40625 -0.703125 -3.265625l0 -1.15625q0 -2.984375 1.390625 -4.640625q1.40625 -1.65625 3.9375 -1.65625q2.078125 0 3.34375 1.0625q1.265625 1.0625 1.546875 3.015625l-1.75 0q-0.484375 -2.625 -3.125 -2.625q-1.765625 0 -2.671875 1.234375q-0.90625 1.234375 -0.90625 3.5625l0 1.09375q0 2.234375 1.015625 3.546875q1.015625 1.3125 2.765625 1.3125q0.984375 0 1.71875 -0.21875q0.734375 -0.21875 1.21875 -0.734375l0 -2.984375l-3.078125 0l0 -1.421875l4.8125 0l0 4.875zm12.676514 -2.46875q-0.25 2.09375 -1.5625 3.25q-1.296875 1.140625 -3.46875 1.140625q-2.34375 0 -3.765625 -1.6875q-1.421875 -1.6875 -1.421875 -4.515625l0 -1.265625q0 -1.859375 0.65625 -3.25q0.671875 -1.40625 1.875 -2.15625q1.21875 -0.765625 2.8125 -0.765625q2.109375 0 3.390625 1.1875q1.28125 1.171875 1.484375 3.265625l-1.765625 0q-0.21875 -1.578125 -0.984375 -2.28125q-0.765625 -0.71875 -2.125 -0.71875q-1.671875 0 -2.625 1.234375q-0.953125 1.234375 -0.953125 3.53125l0 1.28125q0 2.15625 0.890625 3.4375q0.90625 1.265625 2.53125 1.265625q1.453125 0 2.234375 -0.65625q0.78125 -0.65625 1.03125 -2.296875l1.765625 0zm4.1273193 -0.984375l0 5.1875l-1.734375 0l0 -13.265625l4.890625 0q2.171875 0 3.40625 1.109375q1.234375 1.109375 1.234375 2.953125q0 1.921875 -1.21875 2.96875q-1.203125 1.046875 -3.453125 1.046875l-3.125 0zm0 -1.4375l3.15625 0q1.390625 0 2.140625 -0.65625q0.75 -0.65625 0.75 -1.90625q0 -1.1875 -0.75 -1.890625q-0.75 -0.71875 -2.046875 -0.75l-3.25 0l0 5.203125z" fill-rule="nonzero"/><path fill="#f6d58e" fill-opacity="0.8378" d="m433.53806 466.25476l0 0c0 -4.4879456 3.638214 -8.12616 8.12616 -8.12616l101.79495 0c2.1551514 0 4.222107 0.85614014 5.7460327 2.3800964c1.5239868 1.5239563 2.380127 3.5908813 2.380127 5.746063l0 32.5036c0 4.4879456 -3.6382446 8.12616 -8.12616 8.12616l-101.79495 0l0 0c-4.4879456 0 -8.12616 -3.638214 -8.12616 -8.12616z" fill-rule="evenodd"/><path stroke="#cccccc" stroke-width="1.0" stroke-linejoin="round" stroke-linecap="butt" d="m433.53806 466.25476l0 0c0 -4.4879456 3.638214 -8.12616 8.12616 -8.12616l101.79495 0c2.1551514 0 4.222107 0.85614014 5.7460327 2.3800964c1.5239868 1.5239563 2.380127 3.5908813 2.380127 5.746063l0 32.5036c0 4.4879456 -3.6382446 8.12616 -8.12616 8.12616l-101.79495 0l0 0c-4.4879456 0 -8.12616 -3.638214 -8.12616 -8.12616z" fill-rule="evenodd"/><path fill="#000000" d="m481.84036 485.95782l-5.546875 0l-1.25 3.46875l-1.8125 0l5.0625 -13.265625l1.53125 0l5.078125 13.265625l-1.796875 0l-1.265625 -3.46875zm-5.03125 -1.4375l4.515625 0l-2.265625 -6.203125l-2.25 6.203125zm12.119507 0.71875l0.25 1.75l0.375 -1.578125l2.625 -9.25l1.46875 0l2.5625 9.25l0.359375 1.609375l0.28125 -1.78125l2.0625 -9.078125l1.765625 0l-3.21875 13.265625l-1.59375 0l-2.734375 -9.671875l-0.203125 -1.0l-0.21875 1.0l-2.828125 9.671875l-1.59375 0l-3.203125 -13.265625l1.75 0l2.09375 9.078125zm17.598846 -1.71875q-2.25 -0.65625 -3.28125 -1.59375q-1.03125 -0.9375 -1.03125 -2.328125q0 -1.5625 1.25 -2.59375q1.265625 -1.03125 3.265625 -1.03125q1.359375 0 2.4375 0.53125q1.078125 0.53125 1.65625 1.46875q0.59375 0.921875 0.59375 2.03125l-1.765625 0q0 -1.203125 -0.765625 -1.890625q-0.765625 -0.6875 -2.15625 -0.6875q-1.296875 0 -2.015625 0.5625q-0.71875 0.5625 -0.71875 1.578125q0 0.8125 0.6875 1.375q0.6875 0.5625 2.328125 1.03125q1.65625 0.453125 2.59375 1.015625q0.9375 0.5625 1.375 1.3125q0.453125 0.75 0.453125 1.75q0 1.609375 -1.25 2.59375q-1.25 0.96875 -3.359375 0.96875q-1.375 0 -2.5625 -0.515625q-1.171875 -0.53125 -1.8125 -1.4375q-0.640625 -0.921875 -0.640625 -2.078125l1.75 0q0 1.203125 0.890625 1.90625q0.890625 0.6875 2.375 0.6875q1.375 0 2.109375 -0.5625q0.75 -0.5625 0.75 -1.53125q0 -0.984375 -0.6875 -1.515625q-0.6875 -0.53125 -2.46875 -1.046875z" fill-rule="nonzero"/><path fill="#f6d58e" fill-opacity="0.8378" d="m690.61945 466.25476l0 0c0 -4.4879456 3.6381836 -8.12616 8.126099 -8.12616l96.56665 0c2.1551514 0 4.222107 0.85614014 5.7460327 2.3800964c1.5239258 1.5239563 2.380066 3.5908813 2.380066 5.746063l0 32.5036c0 4.4879456 -3.6381836 8.12616 -8.126099 8.12616l-96.56665 0c-4.487915 0 -8.126099 -3.638214 -8.126099 -8.12616z" fill-rule="evenodd"/><path stroke="#cccccc" stroke-width="1.0" stroke-linejoin="round" stroke-linecap="butt" d="m690.61945 466.25476l0 0c0 -4.4879456 3.6381836 -8.12616 8.126099 -8.12616l96.56665 0c2.1551514 0 4.222107 0.85614014 5.7460327 2.3800964c1.5239258 1.5239563 2.380066 3.5908813 2.380066 5.746063l0 32.5036c0 4.4879456 -3.6381836 8.12616 -8.126099 8.12616l-96.56665 0c-4.487915 0 -8.126099 -3.638214 -8.126099 -8.12616z" fill-rule="evenodd"/><path fill="#000000" d="m723.4731 483.22345q0 1.953125 -0.65625 3.40625q-0.640625 1.453125 -1.84375 2.21875q-1.203125 0.765625 -2.8125 0.765625q-1.5625 0 -2.78125 -0.765625q-1.203125 -0.78125 -1.875 -2.203125q-0.671875 -1.421875 -0.6875 -3.296875l0 -0.96875q0 -1.90625 0.65625 -3.375q0.671875 -1.46875 1.890625 -2.25q1.21875 -0.78125 2.78125 -0.78125q1.59375 0 2.8125 0.78125q1.21875 0.765625 1.859375 2.234375q0.65625 1.453125 0.65625 3.390625l0 0.84375zm-1.734375 -0.859375q0 -2.359375 -0.953125 -3.609375q-0.9375 -1.265625 -2.640625 -1.265625q-1.65625 0 -2.609375 1.265625q-0.953125 1.25 -0.984375 3.5l0 0.96875q0 2.28125 0.953125 3.59375q0.96875 1.3125 2.65625 1.3125q1.6875 0 2.609375 -1.234375q0.9375 -1.234375 0.96875 -3.546875l0 -0.984375zm5.701172 -2.796875l0.046875 1.234375q1.125 -1.40625 2.953125 -1.40625q3.125 0 3.15625 3.515625l0 6.515625l-1.6875 0l0 -6.515625q-0.015625 -1.078125 -0.5 -1.578125q-0.46875 -0.515625 -1.484375 -0.515625q-0.8125 0 -1.4375 0.4375q-0.609375 0.4375 -0.96875 1.15625l0 7.015625l-1.671875 0l0 -9.859375l1.59375 0zm21.631042 5.046875q0 2.25 -1.03125 3.625q-1.015625 1.375 -2.78125 1.375q-1.796875 0 -2.828125 -1.140625l0 4.75l-1.671875 0l0 -13.65625l1.53125 0l0.078125 1.09375q1.03125 -1.265625 2.859375 -1.265625q1.78125 0 2.8125 1.34375q1.03125 1.328125 1.03125 3.71875l0 0.15625zm-1.671875 -0.203125q0 -1.65625 -0.71875 -2.625q-0.703125 -0.96875 -1.953125 -0.96875q-1.53125 0 -2.296875 1.359375l0 4.703125q0.765625 1.359375 2.328125 1.359375q1.203125 0 1.921875 -0.953125q0.71875 -0.96875 0.71875 -2.875zm8.591797 -3.328125q-0.390625 -0.0625 -0.84375 -0.0625q-1.65625 0 -2.25 1.40625l0 7.0l-1.671875 0l0 -9.859375l1.640625 0l0.015625 1.140625q0.828125 -1.3125 2.359375 -1.3125q0.484375 0 0.75 0.125l0 1.5625zm5.4522095 8.53125q-2.0 0 -3.265625 -1.3125q-1.25 -1.328125 -1.25 -3.53125l0 -0.3125q0 -1.46875 0.5625 -2.609375q0.5625 -1.15625 1.5625 -1.796875q1.015625 -0.65625 2.1875 -0.65625q1.921875 0 2.984375 1.265625q1.0625 1.265625 1.0625 3.625l0 0.6875l-6.671875 0q0.03125 1.46875 0.84375 2.375q0.828125 0.890625 2.078125 0.890625q0.890625 0 1.515625 -0.359375q0.625 -0.375 1.078125 -0.96875l1.03125 0.796875q-1.234375 1.90625 -3.71875 1.90625zm-0.203125 -8.84375q-1.015625 0 -1.71875 0.75q-0.6875 0.734375 -0.84375 2.078125l4.9375 0l0 -0.125q-0.078125 -1.28125 -0.703125 -1.984375q-0.609375 -0.71875 -1.671875 -0.71875zm7.586914 -1.203125l0.046875 1.09375q1.078125 -1.265625 2.921875 -1.265625q2.0625 0 2.8125 1.578125q0.5 -0.71875 1.28125 -1.140625q0.796875 -0.4375 1.859375 -0.4375q3.25 0 3.296875 3.421875l0 6.609375l-1.671875 0l0 -6.5q0 -1.0625 -0.484375 -1.578125q-0.484375 -0.53125 -1.625 -0.53125q-0.9375 0 -1.5625 0.5625q-0.609375 0.5625 -0.71875 1.5l0 6.546875l-1.6875 0l0 -6.453125q0 -2.15625 -2.109375 -2.15625q-1.65625 0 -2.265625 1.40625l0 7.203125l-1.6875 0l0 -9.859375l1.59375 0z" fill-rule="nonzero"/><path fill="#f6d58e" fill-opacity="0.8378" d="m564.69293 465.98178l0 0c0 -4.3371887 3.5159912 -7.85318 7.8531494 -7.85318l97.11255 0c2.0828247 0 4.080261 0.8273926 5.5530396 2.3001404c1.4727783 1.4727783 2.300171 3.4702454 2.300171 5.5530396l0 31.411774c0 4.3371887 -3.5159912 7.8531494 -7.8532104 7.8531494l-97.11255 0c-4.337158 0 -7.8531494 -3.5159607 -7.8531494 -7.8531494z" fill-rule="evenodd"/><path stroke="#cccccc" stroke-width="1.0" stroke-linejoin="round" stroke-linecap="butt" d="m564.69293 465.98178l0 0c0 -4.3371887 3.5159912 -7.85318 7.8531494 -7.85318l97.11255 0c2.0828247 0 4.080261 0.8273926 5.5530396 2.3001404c1.4727783 1.4727783 2.300171 3.4702454 2.300171 5.5530396l0 31.411774c0 4.3371887 -3.5159912 7.8531494 -7.8532104 7.8531494l-97.11255 0c-4.337158 0 -7.8531494 -3.5159607 -7.8531494 -7.8531494z" fill-rule="evenodd"/><path fill="#000000" d="m606.04474 485.13892l-5.546875 0l-1.25 3.46875l-1.8125 0l5.0625 -13.265625l1.53125 0l5.078125 13.265625l-1.796875 0l-1.265625 -3.46875zm-5.03125 -1.4375l4.515625 0l-2.265625 -6.203125l-2.25 6.203125zm11.310913 3.53125l5.765625 0l0 1.375l-7.828125 0l0 -1.234375l5.4375 -7.234375l-5.34375 0l0 -1.390625l7.46875 0l0 1.203125l-5.5 7.28125zm13.746155 0.40625q-0.984375 1.15625 -2.890625 1.15625q-1.578125 0 -2.40625 -0.921875q-0.8125 -0.921875 -0.828125 -2.703125l0 -6.421875l1.6875 0l0 6.375q0 2.234375 1.828125 2.234375q1.921875 0 2.5625 -1.4375l0 -7.171875l1.6875 0l0 9.859375l-1.609375 0l-0.03125 -0.96875zm8.972168 -7.375q-0.390625 -0.0625 -0.84375 -0.0625q-1.65625 0 -2.25 1.40625l0 7.0l-1.671936 0l0 -9.859375l1.640686 0l0.015625 1.140625q0.828125 -1.3125 2.359375 -1.3125q0.484375 0 0.75 0.125l0 1.5625zm5.4522095 8.53125q-2.0 0 -3.265625 -1.3125q-1.25 -1.328125 -1.25 -3.53125l0 -0.3125q0 -1.46875 0.5625 -2.609375q0.5625 -1.15625 1.5625 -1.796875q1.015625 -0.65625 2.1875 -0.65625q1.921875 0 2.984375 1.265625q1.0625 1.265625 1.0625 3.625l0 0.6875l-6.671875 0q0.03125 1.46875 0.84375 2.375q0.828125 0.890625 2.078125 0.890625q0.890625 0 1.515625 -0.359375q0.625 -0.375 1.078125 -0.96875l1.03125 0.796875q-1.234375 1.90625 -3.71875 1.90625zm-0.203125 -8.84375q-1.015625 0 -1.71875 0.75q-0.6875 0.734375 -0.84375 2.078125l4.9375 0l0 -0.125q-0.078125 -1.28125 -0.703125 -1.984375q-0.609375 -0.71875 -1.671875 -0.71875z" fill-rule="nonzero"/><path fill="#f6d58e" fill-opacity="0.8378" d="m816.54596 466.25476l0 0c0 -4.4879456 3.6381836 -8.12616 8.126099 -8.12616l96.56665 0c2.1551514 0 4.222107 0.85614014 5.7460327 2.3800964c1.5239258 1.5239563 2.380066 3.5908813 2.380066 5.746063l0 32.5036c0 4.4879456 -3.6381836 8.12616 -8.126099 8.12616l-96.56665 0c-4.487915 0 -8.126099 -3.638214 -8.126099 -8.12616z" fill-rule="evenodd"/><path stroke="#cccccc" stroke-width="1.0" stroke-linejoin="round" stroke-linecap="butt" d="m816.54596 466.25476l0 0c0 -4.4879456 3.6381836 -8.12616 8.126099 -8.12616l96.56665 0c2.1551514 0 4.222107 0.85614014 5.7460327 2.3800964c1.5239258 1.5239563 2.380066 3.5908813 2.380066 5.746063l0 32.5036c0 4.4879456 -3.6381836 8.12616 -8.126099 8.12616l-96.56665 0c-4.487915 0 -8.126099 -3.638214 -8.126099 -8.12616z" fill-rule="evenodd"/><path fill="#000000" d="m853.69257 487.98907l6.28125 0l0 1.4375l-8.03125 0l0 -13.265625l1.75 0l0 11.828125zm7.5699463 -3.578125q0 -1.453125 0.5625 -2.609375q0.578125 -1.15625 1.59375 -1.78125q1.015625 -0.625 2.3125 -0.625q2.015625 0 3.25 1.390625q1.25 1.390625 1.25 3.703125l0 0.125q0 1.4375 -0.546875 2.578125q-0.546875 1.140625 -1.578125 1.78125q-1.015625 0.640625 -2.359375 0.640625q-2.0 0 -3.25 -1.390625q-1.234375 -1.40625 -1.234375 -3.703125l0 -0.109375zm1.6875 0.203125q0 1.640625 0.765625 2.640625q0.765625 0.984375 2.03125 0.984375q1.296875 0 2.046875 -1.0q0.75 -1.015625 0.75 -2.828125q0 -1.625 -0.765625 -2.625q-0.765625 -1.015625 -2.046875 -1.015625q-1.25 0 -2.015625 1.0q-0.765625 0.984375 -0.765625 2.84375zm13.358643 3.625q0.890625 0 1.5625 -0.546875q0.6875 -0.546875 0.75 -1.375l1.59375 0q-0.046875 0.84375 -0.578125 1.609375q-0.53125 0.765625 -1.4375 1.234375q-0.890625 0.453125 -1.890625 0.453125q-2.015625 0 -3.203125 -1.34375q-1.1875 -1.34375 -1.1875 -3.6875l0 -0.28125q0 -1.4375 0.515625 -2.546875q0.53125 -1.125 1.515625 -1.734375q1.0 -0.625 2.34375 -0.625q1.65625 0 2.75 1.0q1.109375 0.984375 1.171875 2.5625l-1.59375 0q-0.0625 -0.953125 -0.71875 -1.5625q-0.65625 -0.625 -1.609375 -0.625q-1.28125 0 -2.0 0.921875q-0.703125 0.921875 -0.703125 2.671875l0 0.328125q0 1.703125 0.703125 2.625q0.703125 0.921875 2.015625 0.921875zm11.890381 1.1875q-0.140625 -0.296875 -0.234375 -1.03125q-1.171875 1.21875 -2.8125 1.21875q-1.453125 0 -2.390625 -0.828125q-0.921875 -0.828125 -0.921875 -2.09375q0 -1.53125 1.15625 -2.375q1.171875 -0.859375 3.296875 -0.859375l1.640625 0l0 -0.78125q0 -0.890625 -0.53125 -1.40625q-0.515625 -0.53125 -1.546875 -0.53125q-0.90625 0 -1.515625 0.46875q-0.609375 0.453125 -0.609375 1.09375l-1.703125 0q0 -0.734375 0.515625 -1.421875q0.53125 -0.6875 1.421875 -1.078125q0.90625 -0.40625 1.984375 -0.40625q1.703125 0 2.671875 0.859375q0.96875 0.84375 1.0 2.328125l0 4.53125q0 1.359375 0.34375 2.171875l0 0.140625l-1.765625 0zm-2.796875 -1.28125q0.796875 0 1.5 -0.40625q0.71875 -0.421875 1.03125 -1.078125l0 -2.015625l-1.3125 0q-3.109375 0 -3.109375 1.8125q0 0.796875 0.53125 1.25q0.53125 0.4375 1.359375 0.4375zm8.694824 1.28125l-1.6875 0l0 -14.0l1.6875 0l0 14.0z" fill-rule="nonzero"/><path fill="#eeeeee" d="m314.8491 286.26788l0 0c0 -4.6474 3.767456 -8.414856 8.414856 -8.414856l88.74509 0c2.2317505 0 4.372101 0.88656616 5.9501953 2.4646606c1.5780945 1.5780945 2.4646606 3.7184448 2.4646606 5.9501953l0 33.658447c0 4.6474 -3.767456 8.414886 -8.414856 8.414886l-88.74509 0l0 0c-4.6474 0 -8.414856 -3.7674866 -8.414856 -8.414886z" fill-rule="evenodd"/><path stroke="#cccccc" stroke-width="1.0" stroke-linejoin="round" stroke-linecap="butt" d="m314.8491 286.26788l0 0c0 -4.6474 3.767456 -8.414856 8.414856 -8.414856l88.74509 0c2.2317505 0 4.372101 0.88656616 5.9501953 2.4646606c1.5780945 1.5780945 2.4646606 3.7184448 2.4646606 5.9501953l0 33.658447c0 4.6474 -3.767456 8.414886 -8.414856 8.414886l-88.74509 0l0 0c-4.6474 0 -8.414856 -3.7674866 -8.414856 -8.414886z" fill-rule="evenodd"/><path fill="#000000" d="m353.08078 310.01712l-1.75 0l0 -13.265625l1.75 0l0 13.265625zm8.667725 -2.609375q0 -0.6875 -0.515625 -1.0625q-0.515625 -0.375 -1.796875 -0.640625q-1.28125 -0.28125 -2.03125 -0.65625q-0.75 -0.390625 -1.109375 -0.921875q-0.359375 -0.53125 -0.359375 -1.265625q0 -1.203125 1.015625 -2.03125q1.03125 -0.84375 2.625 -0.84375q1.671875 0 2.71875 0.859375q1.046875 0.859375 1.046875 2.21875l-1.6875 0q0 -0.703125 -0.59375 -1.203125q-0.59375 -0.5 -1.484375 -0.5q-0.921875 0 -1.4375 0.40625q-0.515625 0.390625 -0.515625 1.046875q0 0.609375 0.484375 0.921875q0.484375 0.3125 1.734375 0.59375q1.265625 0.28125 2.046875 0.671875q0.78125 0.390625 1.15625 0.9375q0.390625 0.546875 0.390625 1.34375q0 1.328125 -1.0625 2.125q-1.046875 0.796875 -2.734375 0.796875q-1.1875 0 -2.109375 -0.421875q-0.90625 -0.421875 -1.421875 -1.171875q-0.515625 -0.75 -0.515625 -1.625l1.6875 0q0.046875 0.84375 0.671875 1.34375q0.640625 0.5 1.6875 0.5q0.953125 0 1.53125 -0.390625q0.578125 -0.390625 0.578125 -1.03125zm6.166504 -9.640625l0 2.390625l1.84375 0l0 1.3125l-1.84375 0l0 6.109375q0 0.59375 0.234375 0.890625q0.25 0.296875 0.84375 0.296875q0.296875 0 0.8125 -0.109375l0 1.359375q-0.671875 0.1875 -1.296875 0.1875q-1.125 0 -1.703125 -0.6875q-0.578125 -0.6875 -0.578125 -1.9375l0 -6.109375l-1.796875 0l0 -1.3125l1.796875 0l0 -2.390625l1.6875 0zm5.641144 12.25l-1.6875 0l0 -9.859375l1.6875 0l0 9.859375zm-1.828125 -12.46875q0 -0.40625 0.25 -0.6875q0.25 -0.296875 0.734375 -0.296875q0.5 0 0.75 0.296875q0.265625 0.28125 0.265625 0.6875q0 0.40625 -0.265625 0.6875q-0.25 0.265625 -0.75 0.265625q-0.484375 0 -0.734375 -0.265625q-0.25 -0.28125 -0.25 -0.6875zm4.07428 7.453125q0 -1.453125 0.5625 -2.609375q0.578125 -1.15625 1.59375 -1.78125q1.015625 -0.625 2.3125 -0.625q2.015625 0 3.25 1.390625q1.25 1.390625 1.25 3.703125l0 0.125q0 1.4375 -0.546875 2.578125q-0.546875 1.140625 -1.578125 1.78125q-1.015625 0.640625 -2.359375 0.640625q-2.0 0 -3.25 -1.390625q-1.234375 -1.40625 -1.234375 -3.703125l0 -0.109375zm1.6875 0.203125q0 1.640625 0.765625 2.640625q0.765625 0.984375 2.03125 0.984375q1.296875 0 2.046875 -1.0q0.75 -1.015625 0.75 -2.828125q0 -1.625 -0.765625 -2.625q-0.765625 -1.015625 -2.046875 -1.015625q-1.25 0 -2.015625 1.0q-0.765625 0.984375 -0.765625 2.84375z" fill-rule="nonzero"/><path fill="#000000" fill-opacity="0.0" d="m38.958004 192.70497l223.74802 0l0 56.409454l-223.74802 0z" fill-rule="evenodd"/><path fill="#6b96f6" d="m54.75488 208.35184l4.859375 13.75l4.843754 -13.75l5.125 0l0 18.953125l-3.90625 0l0 -5.1875l0.390625 -8.9375l-5.125004 14.125l-2.671875 0l-5.109375 -14.109375l0.390625 8.921875l0 5.1875l-3.90625 0l0 -18.953125l5.109375 0zm22.14713 15.8125l8.296875 0l0 3.140625l-12.203125 0l0 -18.953125l3.90625 0l0 15.8125zm21.43187 -14.40625l0 3.46875l2.40625 0l0 2.75l-2.40625 0l0 7.03125q0 0.78125 0.296875 1.125q0.296875 0.328125 1.140625 0.328125q0.625 0 1.109375 -0.078125l0 2.84375q-1.109375 0.34375 -2.28125 0.34375q-3.953125 0 -4.03125 -4.0l0 -7.59375l-2.0625 0l0 -2.75l2.0625 0l0 -3.46875l3.765625 0zm3.522522 10.375q0 -2.09375 0.796875 -3.734375q0.8125 -1.640625 2.328125 -2.53125q1.515625 -0.90625 3.53125 -0.90625q2.84375 0 4.640625 1.75q1.8125 1.734375 2.015625 4.734375l0.03125 0.96875q0 3.234375 -1.8125 5.203125q-1.8125 1.953125 -4.859375 1.953125q-3.046875 0 -4.859375 -1.953125q-1.8125 -1.953125 -1.8125 -5.3125l0 -0.171875zm3.765625 0.28125q0 2.0 0.75 3.0625q0.75 1.0625 2.15625 1.0625q1.375 0 2.140625 -1.046875q0.765625 -1.0625 0.765625 -3.359375q0 -1.96875 -0.765625 -3.046875q-0.765625 -1.078125 -2.15625 -1.078125q-1.390625 0 -2.140625 1.078125q-0.75 1.0625 -0.75 3.328125zm11.30661 -0.28125q0 -2.09375 0.796875 -3.734375q0.8125 -1.640625 2.328125 -2.53125q1.515625 -0.90625 3.53125 -0.90625q2.84375 0 4.640625 1.75q1.8125 1.734375 2.015625 4.734375l0.03125 0.96875q0 3.234375 -1.8125 5.203125q-1.8125 1.953125 -4.859375 1.953125q-3.046875 0 -4.859375 -1.953125q-1.8125 -1.953125 -1.8125 -5.3125l0 -0.171875zm3.765625 0.28125q0 2.0 0.75 3.0625q0.75 1.0625 2.15625 1.0625q1.375 0 2.140625 -1.046875q0.765625 -1.0625 0.765625 -3.359375q0 -1.96875 -0.765625 -3.046875q-0.765625 -1.078125 -2.15625 -1.078125q-1.390625 0 -2.140625 1.078125q-0.75 1.0625 -0.75 3.328125zm15.86911 6.890625l-3.78125 0l0 -20.0l3.78125 0l0 20.0zm10.723801 -3.890625q0 -0.6875 -0.6875 -1.078125q-0.6875 -0.40625 -2.1875 -0.71875q-5.03125 -1.046875 -5.03125 -4.265625q0 -1.875 1.546875 -3.125q1.5625 -1.265625 4.078125 -1.265625q2.671875 0 4.28125 1.265625q1.609375 1.265625 1.609375 3.28125l-3.765625 0q0 -0.8125 -0.515625 -1.328125q-0.515625 -0.53125 -1.625 -0.53125q-0.953125 0 -1.46875 0.4375q-0.515625 0.421875 -0.515625 1.078125q0 0.625 0.578125 1.015625q0.59375 0.375 2.0 0.65625q1.40625 0.28125 2.375 0.640625q2.984375 1.09375 2.984375 3.78125q0 1.921875 -1.65625 3.125q-1.65625 1.1875 -4.265625 1.1875q-1.78125 0 -3.15625 -0.625q-1.359375 -0.640625 -2.140625 -1.734375q-0.78125 -1.109375 -0.78125 -2.390625l3.5625 0q0.046875 1.015625 0.734375 1.546875q0.703125 0.53125 1.859375 0.53125q1.078125 0 1.625 -0.40625q0.5625 -0.421875 0.5625 -1.078125z" fill-rule="nonzero"/><path fill="#6b96f6" d="m314.8491 102.59869l0 0c0 -7.3001556 5.917938 -13.218109 13.218109 -13.218109l588.08344 0c3.5056763 0 6.867737 1.3926163 9.346619 3.871498c2.4788818 2.4788742 3.871521 5.84095 3.871521 9.346611l0 52.870872c0 7.3001556 -5.9179688 13.218109 -13.21814 13.218109l-588.08344 0l0 0c-7.300171 0 -13.218109 -5.9179535 -13.218109 -13.218109z" fill-rule="evenodd"/><path stroke="#cccccc" stroke-width="1.0" stroke-linejoin="round" stroke-linecap="butt" d="m314.8491 102.59869l0 0c0 -7.3001556 5.917938 -13.218109 13.218109 -13.218109l588.08344 0c3.5056763 0 6.867737 1.3926163 9.346619 3.871498c2.4788818 2.4788742 3.871521 5.84095 3.871521 9.346611l0 52.870872c0 7.3001556 -5.9179688 13.218109 -13.21814 13.218109l-588.08344 0l0 0c-7.300171 0 -13.218109 -5.9179535 -13.218109 -13.218109z" fill-rule="evenodd"/><path fill="#ffffff" d="m549.56793 132.02786l-3.046875 3.28125l0 8.125l-5.859375 0l0 -28.437492l5.859375 0l0 12.890625l2.578125 -3.53125l7.234375 -9.359375l7.21875 0l-10.109375 12.640625l10.390625 15.796867l-6.96875 0l-7.296875 -11.40625zm28.316406 9.25q-2.09375 2.546875 -5.78125 2.546875q-3.40625 0 -5.1875 -1.953125q-1.78125 -1.953125 -1.828125 -5.71875l0 -13.859367l5.640625 0l0 13.656242q0 3.296875 3.015625 3.296875q2.875 0 3.9375 -1.984375l0 -14.968742l5.671875 0l0 21.140617l-5.3125 0l-0.15625 -2.15625zm28.773438 -8.21875q0 5.078125 -2.171875 7.921875q-2.171875 2.84375 -6.0625 2.84375q-3.4375 0 -5.484375 -2.640625l-0.25 2.25l-5.078125 0l0 -29.999992l5.640625 0l0 10.765625q1.953125 -2.296875 5.140625 -2.296875q3.859375 0 6.0625 2.84375q2.203125 2.84375 2.203125 7.9999924l0 0.3125zm-5.65625 -0.40625q0 -3.203125 -1.015625 -4.6718674q-1.015625 -1.484375 -3.015625 -1.484375q-2.703125 0 -3.71875 2.2031174l0 8.34375q1.03125 2.234375 3.75 2.234375q2.734375 0 3.59375 -2.703125q0.40625 -1.28125 0.40625 -3.921875zm18.847656 11.171875q-4.640625 0 -7.5625 -2.84375q-2.921875 -2.859375 -2.921875 -7.609375l0 -0.546875q0 -3.1875 1.234375 -5.6874924q1.234375 -2.515625 3.484375 -3.875q2.25 -1.359375 5.140625 -1.359375q4.34375 0 6.828125 2.734375q2.5 2.734375 2.5 7.7656174l0 2.296875l-13.46875 0q0.28125 2.078125 1.65625 3.328125q1.375 1.25 3.484375 1.25q3.265625 0 5.09375 -2.375l2.78125 3.109375q-1.265625 1.796875 -3.4375 2.8125q-2.171875 1.0 -4.8125 1.0zm-0.640625 -17.343742q-1.671875 0 -2.71875 1.140625q-1.046875 1.1249924 -1.34375 3.2343674l7.859375 0l0 -0.453125q-0.046875 -1.875 -1.03125 -2.8906174q-0.96875 -1.03125 -2.765625 -1.03125zm26.699219 -8.671875q-1.671875 -0.203125 -3.125 -0.203125q-3.828125 0 -3.828125 3.265625l0 1.421875l4.203125 0l0 4.140625l-4.203125 0l0 16.999992l-5.65625 0l0 -16.999992l-3.15625 0l0 -4.140625l3.15625 0l0 -1.640625q0.03125 -3.671875 2.296875 -5.640625q2.265625 -1.984375 6.40625 -1.984375q2.953125 0 9.578125 0.625l0 29.781242l-5.671875 0l0 -25.624992zm9.480469 14.859367q0 -3.140625 1.203125 -5.5937424q1.21875 -2.46875 3.484375 -3.8125q2.28125 -1.359375 5.28125 -1.359375q4.28125 0 6.984375 2.625q2.703125 2.609375 3.015625 7.1093674l0.046875 1.4375q0 4.875 -2.71875 7.8125q-2.71875 2.9375 -7.296875 2.9375q-4.5625 0 -7.28125 -2.921875q-2.71875 -2.9375 -2.71875 -7.984375l0 -0.25zm5.640625 0.40625q0 3.015625 1.125 4.609375q1.140625 1.59375 3.25 1.59375q2.046875 0 3.203125 -1.578125q1.15625 -1.578125 1.15625 -5.03125q0 -2.953125 -1.15625 -4.5625q-1.15625 -1.6249924 -3.25 -1.6249924q-2.0625 0 -3.203125 1.6093674q-1.125 1.609375 -1.125 4.984375zm36.226562 2.6875l2.78125 -13.468742l5.4375 0l-5.390625 21.140617l-4.71875 0l-4.0 -13.296875l-4.015625 13.296875l-4.703125 0l-5.390625 -21.140617l5.453125 0l2.75 13.437492l3.875 -13.437492l4.078125 0l3.84375 13.468742z" fill-rule="nonzero"/><path fill="#eeeeee" d="m314.8491 203.01854l0 0c0 -4.4879456 3.6381836 -8.126144 8.126129 -8.126144l89.32251 0c2.155182 0 4.222107 0.85614014 5.746063 2.3800812c1.5239563 1.5239563 2.3800964 3.590866 2.3800964 5.746063l0 32.5036c0 4.487961 -3.638214 8.12616 -8.12616 8.12616l-89.32251 0c-4.4879456 0 -8.126129 -3.6381989 -8.126129 -8.12616z" fill-rule="evenodd"/><path stroke="#cccccc" stroke-width="1.0" stroke-linejoin="round" stroke-linecap="butt" d="m314.8491 203.01854l0 0c0 -4.4879456 3.6381836 -8.126144 8.126129 -8.126144l89.32251 0c2.155182 0 4.222107 0.85614014 5.746063 2.3800812c1.5239563 1.5239563 2.3800964 3.590866 2.3800964 5.746063l0 32.5036c0 4.487961 -3.638214 8.12616 -8.12616 8.12616l-89.32251 0c-4.4879456 0 -8.126129 -3.6381989 -8.126129 -8.12616z" fill-rule="evenodd"/><path fill="#000000" d="m337.0261 221.00284l0 5.1875l-1.734375 0l0 -13.265625l4.890625 0q2.171875 0 3.40625 1.109375q1.234375 1.109375 1.234375 2.953125q0 1.921875 -1.21875 2.96875q-1.203125 1.046875 -3.453125 1.046875l-3.125 0zm0 -1.4375l3.15625 0q1.390625 0 2.140625 -0.65625q0.75 -0.65625 0.75 -1.90625q0 -1.1875 -0.75 -1.890625q-0.75 -0.71875 -2.046875 -0.75l-3.25 0l0 5.203125zm13.124939 4.15625l2.296875 -7.390625l1.796875 0l-3.953125 11.375q-0.921875 2.46875 -2.921875 2.46875l-0.328125 -0.03125l-0.625 -0.125l0 -1.359375l0.453125 0.03125q0.859375 0 1.328125 -0.34375q0.484375 -0.34375 0.796875 -1.265625l0.375 -1.0l-3.515625 -9.75l1.84375 0l2.453125 7.390625zm15.030243 -9.359375l-4.265625 0l0 11.828125l-1.734375 0l0 -11.828125l-4.25 0l0 -1.4375l10.25 0l0 1.4375zm0.35446167 6.8125q0 -1.453125 0.5625 -2.609375q0.578125 -1.15625 1.59375 -1.78125q1.015625 -0.625 2.3125 -0.625q2.015625 0 3.25 1.390625q1.25 1.390625 1.25 3.703125l0 0.125q0 1.4375 -0.546875 2.578125q-0.546875 1.140625 -1.578125 1.78125q-1.015625 0.640625 -2.359375 0.640625q-2.0 0 -3.25 -1.390625q-1.234375 -1.40625 -1.234375 -3.703125l0 -0.109375zm1.6875 0.203125q0 1.640625 0.765625 2.640625q0.765625 0.984375 2.03125 0.984375q1.296875 0 2.046875 -1.0q0.75 -1.015625 0.75 -2.828125q0 -1.625 -0.765625 -2.625q-0.765625 -1.015625 -2.046875 -1.015625q-1.25 0 -2.015625 1.0q-0.765625 0.984375 -0.765625 2.84375zm14.171143 -3.53125q-0.390625 -0.0625 -0.84375 -0.0625q-1.65625 0 -2.25 1.40625l0 7.0l-1.671875 0l0 -9.859375l1.640625 0l0.015625 1.140625q0.828125 -1.3125 2.359375 -1.3125q0.484375 0 0.75 0.125l0 1.5625zm5.3272095 7.15625q0.890625 0 1.5625 -0.546875q0.6875 -0.546875 0.75 -1.375l1.59375 0q-0.046875 0.84375 -0.578125 1.609375q-0.53125 0.765625 -1.4375 1.234375q-0.890625 0.453125 -1.890625 0.453125q-2.015625 0 -3.203125 -1.34375q-1.1875 -1.34375 -1.1875 -3.6875l0 -0.28125q0 -1.4375 0.515625 -2.546875q0.53125 -1.125 1.515625 -1.734375q1.0 -0.625 2.34375 -0.625q1.65625 0 2.75 1.0q1.109375 0.984375 1.171875 2.5625l-1.59375 0q-0.0625 -0.953125 -0.71875 -1.5625q-0.65625 -0.625 -1.609375 -0.625q-1.28125 0 -2.0 0.921875q-0.703125 0.921875 -0.703125 2.671875l0 0.328125q0 1.703125 0.703125 2.625q0.703125 0.921875 2.015625 0.921875zm7.484131 -7.46875q1.125 -1.375 2.921875 -1.375q3.125 0 3.15625 3.515625l0 6.515625l-1.6875 0l0 -6.515625q-0.015625 -1.078125 -0.5 -1.578125q-0.46875 -0.515625 -1.484375 -0.515625q-0.8125 0 -1.4375 0.4375q-0.609375 0.4375 -0.96875 1.15625l0 7.015625l-1.671875 0l0 -14.0l1.671875 0l0 5.34375z" fill-rule="nonzero"/><path fill="#eeeeee" d="m430.25854 203.01854l0 0c0 -4.4879456 3.6381836 -8.126144 8.126129 -8.126144l101.79495 0c2.1552124 0 4.222107 0.85614014 5.7460327 2.3800812c1.5239868 1.5239563 2.380127 3.590866 2.380127 5.746063l0 32.5036c0 4.487961 -3.6381836 8.12616 -8.12616 8.12616l-101.79495 0l0 0c-4.4879456 0 -8.126129 -3.6381989 -8.126129 -8.12616z" fill-rule="evenodd"/><path stroke="#cccccc" stroke-width="1.0" stroke-linejoin="round" stroke-linecap="butt" d="m430.25854 203.01854l0 0c0 -4.4879456 3.6381836 -8.126144 8.126129 -8.126144l101.79495 0c2.1552124 0 4.222107 0.85614014 5.7460327 2.3800812c1.5239868 1.5239563 2.380127 3.590866 2.380127 5.746063l0 32.5036c0 4.487961 -3.6381836 8.12616 -8.12616 8.12616l-101.79495 0l0 0c-4.4879456 0 -8.126129 -3.6381989 -8.126129 -8.12616z" fill-rule="evenodd"/><path fill="#000000" d="m451.14655 223.58096q0 -0.6875 -0.515625 -1.0625q-0.515625 -0.375 -1.796875 -0.640625q-1.28125 -0.28125 -2.03125 -0.65625q-0.75 -0.390625 -1.109375 -0.921875q-0.359375 -0.53125 -0.359375 -1.265625q0 -1.203125 1.015625 -2.03125q1.03125 -0.84375 2.625 -0.84375q1.671875 0 2.71875 0.859375q1.046875 0.859375 1.046875 2.21875l-1.6875 0q0 -0.703125 -0.59375 -1.203125q-0.59375 -0.5 -1.484375 -0.5q-0.921875 0 -1.4375 0.40625q-0.515625 0.390625 -0.515625 1.046875q0 0.609375 0.484375 0.921875q0.484375 0.3125 1.734375 0.59375q1.265625 0.28125 2.046875 0.671875q0.78125 0.390625 1.15625 0.9375q0.390625 0.546875 0.390625 1.34375q0 1.328125 -1.0625 2.125q-1.046875 0.796875 -2.734375 0.796875q-1.1875 0 -2.109375 -0.421875q-0.90625 -0.421875 -1.421875 -1.171875q-0.515625 -0.75 -0.515625 -1.625l1.6875 0q0.046875 0.84375 0.671875 1.34375q0.640625 0.5 1.6875 0.5q0.953125 0 1.53125 -0.390625q0.578125 -0.390625 0.578125 -1.03125zm7.838379 1.421875q0.890625 0 1.5625 -0.546875q0.6875 -0.546875 0.75 -1.375l1.59375 0q-0.046875 0.84375 -0.578125 1.609375q-0.53125 0.765625 -1.4375 1.234375q-0.890625 0.453125 -1.890625 0.453125q-2.015625 0 -3.203125 -1.34375q-1.1875 -1.34375 -1.1875 -3.6875l0 -0.28125q0 -1.4375 0.515625 -2.546875q0.53125 -1.125 1.515625 -1.734375q1.0 -0.625 2.34375 -0.625q1.65625 0 2.75 1.0q1.109375 0.984375 1.171875 2.5625l-1.59375 0q-0.0625 -0.953125 -0.71875 -1.5625q-0.65625 -0.625 -1.609375 -0.625q-1.28125 0 -2.0 0.921875q-0.703125 0.921875 -0.703125 2.671875l0 0.328125q0 1.703125 0.703125 2.625q0.703125 0.921875 2.015625 0.921875zm7.640381 1.1875l-1.6875 0l0 -9.859375l1.6875 0l0 9.859375zm-1.828125 -12.46875q0 -0.40625 0.25 -0.6875q0.25 -0.296875 0.734375 -0.296875q0.5 0 0.75 0.296875q0.265625 0.28125 0.265625 0.6875q0 0.40625 -0.265625 0.6875q-0.25 0.265625 -0.75 0.265625q-0.484375 0 -0.734375 -0.265625q-0.25 -0.28125 -0.25 -0.6875zm7.2774353 7.90625l-1.0625 1.09375l0 3.46875l-1.6875 0l0 -14.0l1.6875 0l0 8.46875l0.90625 -1.078125l3.0625 -3.25l2.046875 0l-3.828125 4.125l4.28125 5.734375l-1.984375 0l-3.421875 -4.5625zm8.533783 4.5625l-1.6875 0l0 -9.859375l1.6875 0l0 9.859375zm-1.828125 -12.46875q0 -0.40625 0.25 -0.6875q0.25 -0.296875 0.734375 -0.296875q0.5 0 0.75 0.296875q0.265625 0.28125 0.265625 0.6875q0 0.40625 -0.265625 0.6875q-0.25 0.265625 -0.75 0.265625q-0.484375 0 -0.734375 -0.265625q-0.25 -0.28125 -0.25 -0.6875zm6.808655 0.21875l0 2.390625l1.84375 0l0 1.3125l-1.84375 0l0 6.109375q0 0.59375 0.234375 0.890625q0.25 0.296875 0.84375 0.296875q0.296875 0 0.8125 -0.109375l0 1.359375q-0.671875 0.1875 -1.296875 0.1875q-1.125 0 -1.703125 -0.6875q-0.578125 -0.6875 -0.578125 -1.9375l0 -6.109375l-1.796875 0l0 -1.3125l1.796875 0l0 -2.390625l1.6875 0zm7.313019 7.296875l-4.4375 0l0 -1.375l4.4375 0l0 1.375zm3.4749756 4.953125l-1.6875 0l0 -14.0l1.6875 0l0 14.0zm6.7774353 0.1875q-2.0 0 -3.265625 -1.3125q-1.25 -1.328125 -1.25 -3.53125l0 -0.3125q0 -1.46875 0.5625 -2.609375q0.5625 -1.15625 1.5625 -1.796875q1.015625 -0.65625 2.1875 -0.65625q1.921875 0 2.984375 1.265625q1.0625 1.265625 1.0625 3.625l0 0.6875l-6.671875 0q0.03125 1.46875 0.84375 2.375q0.828125 0.890625 2.078125 0.890625q0.890625 0 1.515625 -0.359375q0.625 -0.375 1.078125 -0.96875l1.03125 0.796875q-1.234375 1.90625 -3.71875 1.90625zm-0.203125 -8.84375q-1.015625 0 -1.71875 0.75q-0.6875 0.734375 -0.84375 2.078125l4.9375 0l0 -0.125q-0.078125 -1.28125 -0.703125 -1.984375q-0.609375 -0.71875 -1.671875 -0.71875zm12.086914 8.65625q-0.140625 -0.296875 -0.234375 -1.03125q-1.171875 1.21875 -2.8125 1.21875q-1.453125 0 -2.390625 -0.828125q-0.921875 -0.828125 -0.921875 -2.09375q0 -1.53125 1.15625 -2.375q1.171875 -0.859375 3.296875 -0.859375l1.640625 0l0 -0.78125q0 -0.890625 -0.53125 -1.40625q-0.515625 -0.53125 -1.546875 -0.53125q-0.90625 0 -1.515625 0.46875q-0.609375 0.453125 -0.609375 1.09375l-1.703125 0q0 -0.734375 0.515625 -1.421875q0.53125 -0.6875 1.421875 -1.078125q0.90625 -0.40625 1.984375 -0.40625q1.703125 0 2.671875 0.859375q0.96875 0.84375 1.0 2.328125l0 4.53125q0 1.359375 0.34375 2.171875l0 0.140625l-1.765625 0zm-2.796875 -1.28125q0.796875 0 1.5 -0.40625q0.71875 -0.421875 1.03125 -1.078125l0 -2.015625l-1.3125 0q-3.109375 0 -3.109375 1.8125q0 0.796875 0.53125 1.25q0.53125 0.4375 1.359375 0.4375zm11.632385 -7.0625q-0.390625 -0.0625 -0.84375 -0.0625q-1.65625 0 -2.25 1.40625l0 7.0l-1.671875 0l0 -9.859375l1.640625 0l0.015625 1.140625q0.828125 -1.3125 2.359375 -1.3125q0.484375 0 0.75 0.125l0 1.5625zm3.1409912 -1.515625l0.046875 1.234375q1.125 -1.40625 2.953125 -1.40625q3.125 0 3.15625 3.515625l0 6.515625l-1.6875 0l0 -6.515625q-0.015625 -1.078125 -0.5 -1.578125q-0.46875 -0.515625 -1.484375 -0.515625q-0.8125 0 -1.4375 0.4375q-0.609375 0.4375 -0.96875 1.15625l0 7.015625l-1.671875 0l0 -9.859375l1.59375 0z" fill-rule="nonzero"/><path fill="#eeeeee" d="m816.54596 203.7587l0 0c0 -4.4879456 3.6381836 -8.126144 8.126099 -8.126144l96.56665 0c2.1551514 0 4.222107 0.85614014 5.7460327 2.3800812c1.5239258 1.5239563 2.380066 3.590866 2.380066 5.746063l0 32.5036c0 4.4879456 -3.6381836 8.12616 -8.126099 8.12616l-96.56665 0c-4.487915 0 -8.126099 -3.638214 -8.126099 -8.12616z" fill-rule="evenodd"/><path stroke="#cccccc" stroke-width="1.0" stroke-linejoin="round" stroke-linecap="butt" d="m816.54596 203.7587l0 0c0 -4.4879456 3.6381836 -8.126144 8.126099 -8.126144l96.56665 0c2.1551514 0 4.222107 0.85614014 5.7460327 2.3800812c1.5239258 1.5239563 2.380066 3.590866 2.380066 5.746063l0 32.5036c0 4.4879456 -3.6381836 8.12616 -8.126099 8.12616l-96.56665 0c-4.487915 0 -8.126099 -3.638214 -8.126099 -8.12616z" fill-rule="evenodd"/><path fill="#000000" d="m849.01764 213.66487l1.765625 0l0 9.390625q0 1.90625 -1.15625 2.984375q-1.140625 1.078125 -3.03125 1.078125q-1.984375 0 -3.09375 -1.015625q-1.09375 -1.015625 -1.09375 -2.828125l1.75 0q0 1.140625 0.625 1.78125q0.625 0.625 1.8125 0.625q1.078125 0 1.75 -0.671875q0.671875 -0.6875 0.671875 -1.921875l0 -9.421875zm10.559387 12.296875q-0.984375 1.15625 -2.890625 1.15625q-1.578125 0 -2.40625 -0.921875q-0.8125 -0.921875 -0.828125 -2.703125l0 -6.421875l1.6875 0l0 6.375q0 2.234375 1.828125 2.234375q1.921875 0 2.5625 -1.4375l0 -7.171875l1.6875 0l0 9.859375l-1.609375 0l-0.03125 -0.96875zm12.518982 -3.84375q0 2.25 -1.03125 3.625q-1.015625 1.375 -2.78125 1.375q-1.796875 0 -2.828125 -1.140625l0 4.75l-1.671875 0l0 -13.65625l1.53125 0l0.078125 1.09375q1.03125 -1.265625 2.859375 -1.265625q1.78125 0 2.8125 1.34375q1.03125 1.328125 1.03125 3.71875l0 0.15625zm-1.671875 -0.203125q0 -1.65625 -0.71875 -2.625q-0.703125 -0.96875 -1.953125 -0.96875q-1.53125 0 -2.296875 1.359375l0 4.703125q0.765625 1.359375 2.328125 1.359375q1.203125 0 1.921875 -0.953125q0.71875 -0.96875 0.71875 -2.875zm6.944702 2.546875l2.296875 -7.390625l1.796875 0l-3.953125 11.375q-0.921875 2.46875 -2.921875 2.46875l-0.328125 -0.03125l-0.625 -0.125l0 -1.359375l0.453125 0.03125q0.859375 0 1.328125 -0.34375q0.484375 -0.34375 0.796875 -1.265625l0.375 -1.0l-3.515625 -9.75l1.84375 0l2.453125 7.390625zm7.8895874 -9.78125l0 2.390625l1.84375 0l0 1.3125l-1.84375 0l0 6.109375q0 0.59375 0.234375 0.890625q0.25 0.296875 0.84375 0.296875q0.296875 0 0.8125 -0.109375l0 1.359375q-0.671875 0.1875 -1.296875 0.1875q-1.125 0 -1.703125 -0.6875q-0.578125 -0.6875 -0.578125 -1.9375l0 -6.109375l-1.796875 0l0 -1.3125l1.796875 0l0 -2.390625l1.6875 0zm7.8911133 12.4375q-2.0 0 -3.265625 -1.3125q-1.25 -1.328125 -1.25 -3.53125l0 -0.3125q0 -1.46875 0.5625 -2.609375q0.5625 -1.15625 1.5625 -1.796875q1.015625 -0.65625 2.1875 -0.65625q1.921875 0 2.984375 1.265625q1.0625 1.265625 1.0625 3.625l0 0.6875l-6.671875 0q0.03125 1.46875 0.84375 2.375q0.828125 0.890625 2.078125 0.890625q0.890625 0 1.515625 -0.359375q0.625 -0.375 1.078125 -0.96875l1.03125 0.796875q-1.234375 1.90625 -3.71875 1.90625zm-0.203125 -8.84375q-1.015625 0 -1.71875 0.75q-0.6875 0.734375 -0.84375 2.078125l4.9375 0l0 -0.125q-0.078125 -1.28125 -0.703125 -1.984375q-0.609375 -0.71875 -1.671875 -0.71875zm10.774414 0.3125q-0.390625 -0.0625 -0.84375 -0.0625q-1.65625 0 -2.25 1.40625l0 7.0l-1.671875 0l0 -9.859375l1.640625 0l0.015625 1.140625q0.828125 -1.3125 2.359375 -1.3125q0.484375 0 0.75 0.125l0 1.5625z" fill-rule="nonzero"/><path fill="#eeeeee" d="m558.1391 202.74556l0 0c0 -4.3371887 3.5159912 -7.8531647 7.8532104 -7.8531647l110.214905 0c2.0827637 0 4.080261 0.8273773 5.5530396 2.3001404c1.4727173 1.4727478 2.3001099 3.47023 2.3001099 5.5530243l0 31.411758c0 4.3371887 -3.5159912 7.85318 -7.8531494 7.85318l-110.214905 0l0 0c-4.337219 0 -7.8532104 -3.5159912 -7.8532104 -7.85318z" fill-rule="evenodd"/><path stroke="#cccccc" stroke-width="1.0" stroke-linejoin="round" stroke-linecap="butt" d="m558.1391 202.74556l0 0c0 -4.3371887 3.5159912 -7.8531647 7.8532104 -7.8531647l110.214905 0c2.0827637 0 4.080261 0.8273773 5.5530396 2.3001404c1.4727173 1.4727478 2.3001099 3.47023 2.3001099 5.5530243l0 31.411758c0 4.3371887 -3.5159912 7.85318 -7.8531494 7.85318l-110.214905 0l0 0c-4.337219 0 -7.8532104 -3.5159912 -7.8532104 -7.85318z" fill-rule="evenodd"/><path fill="#000000" d="m583.5638 213.54332l-4.265625 0l0 11.828125l-1.734375 0l0 -11.828125l-4.25 0l0 -1.4375l10.25 0l0 1.4375zm4.885681 12.015625q-2.0 0 -3.265625 -1.3125q-1.25 -1.328125 -1.25 -3.53125l0 -0.3125q0 -1.46875 0.5625 -2.609375q0.5625 -1.15625 1.5625 -1.796875q1.015625 -0.65625 2.1875 -0.65625q1.921875 0 2.984375 1.265625q1.0625 1.265625 1.0625 3.625l0 0.6875l-6.671875 0q0.03125 1.46875 0.84375 2.375q0.828125 0.890625 2.078125 0.890625q0.890625 0 1.515625 -0.359375q0.625 -0.375 1.078125 -0.96875l1.03125 0.796875q-1.234375 1.90625 -3.71875 1.90625zm-0.203125 -8.84375q-1.015625 0 -1.71875 0.75q-0.6875 0.734375 -0.84375 2.078125l4.9375 0l0 -0.125q-0.078125 -1.28125 -0.703125 -1.984375q-0.609375 -0.71875 -1.671875 -0.71875zm7.6026 -1.203125l0.046875 1.234375q1.125 -1.40625 2.953125 -1.40625q3.125 0 3.15625 3.515625l0 6.515625l-1.6875 0l0 -6.515625q-0.015625 -1.078125 -0.5 -1.578125q-0.46875 -0.515625 -1.484375 -0.515625q-0.8125 0 -1.4375 0.4375q-0.609375 0.4375 -0.96875 1.15625l0 7.015625l-1.671875 0l0 -9.859375l1.59375 0zm14.434326 7.25q0 -0.6875 -0.515625 -1.0625q-0.515625 -0.375 -1.796875 -0.640625q-1.28125 -0.28125 -2.03125 -0.65625q-0.75 -0.390625 -1.109375 -0.921875q-0.359375 -0.53125 -0.359375 -1.265625q0 -1.203125 1.015625 -2.03125q1.03125 -0.84375 2.625 -0.84375q1.671875 0 2.71875 0.859375q1.046875 0.859375 1.046875 2.21875l-1.6875 0q0 -0.703125 -0.59375 -1.203125q-0.59375 -0.5 -1.484375 -0.5q-0.921875 0 -1.4375 0.40625q-0.515625 0.390625 -0.515625 1.046875q0 0.609375 0.484375 0.921875q0.484375 0.3125 1.734375 0.59375q1.265625 0.28125 2.046875 0.671875q0.78125 0.390625 1.15625 0.9375q0.390625 0.546875 0.390625 1.34375q0 1.328125 -1.0625 2.125q-1.046875 0.796875 -2.734375 0.796875q-1.1875 0 -2.109375 -0.421875q-0.90625 -0.421875 -1.421875 -1.171875q-0.515625 -0.75 -0.515625 -1.625l1.6875 0q0.046875 0.84375 0.671875 1.34375q0.640625 0.5 1.6875 0.5q0.953125 0 1.53125 -0.390625q0.578125 -0.390625 0.578125 -1.03125zm3.432129 -2.40625q0 -1.453125 0.5625 -2.609375q0.578125 -1.15625 1.59375 -1.78125q1.015625 -0.625 2.3125 -0.625q2.015625 0 3.25 1.390625q1.25 1.390625 1.25 3.703125l0 0.125q0 1.4375 -0.546875 2.578125q-0.546875 1.140625 -1.578125 1.78125q-1.015625 0.640625 -2.359375 0.640625q-2.0 0 -3.25 -1.390625q-1.234375 -1.40625 -1.234375 -3.703125l0 -0.109375zm1.6875 0.203125q0 1.640625 0.765625 2.640625q0.765625 0.984375 2.03125 0.984375q1.296875 0 2.046875 -1.0q0.75 -1.015625 0.75 -2.828125q0 -1.625 -0.765625 -2.625q-0.765625 -1.015625 -2.046875 -1.015625q-1.25 0 -2.015625 1.0q-0.765625 0.984375 -0.765625 2.84375zm14.171143 -3.53125q-0.390625 -0.0625 -0.84375 -0.0625q-1.65625 0 -2.25 1.40625l0 7.0l-1.671875 0l0 -9.859375l1.640625 0l0.015625 1.140625q0.828125 -1.3125 2.359375 -1.3125q0.484375 0 0.75 0.125l0 1.5625zm9.125366 2.484375l-5.578125 0l0 5.859375l-1.734375 0l0 -13.265625l8.203125 0l0 1.4375l-6.46875 0l0 4.546875l5.578125 0l0 1.421875zm4.5619507 5.859375l-1.6875 0l0 -14.0l1.6875 0l0 14.0zm2.2462158 -5.015625q0 -1.453125 0.5625 -2.609375q0.578125 -1.15625 1.59375 -1.78125q1.015625 -0.625 2.3125 -0.625q2.015625 0 3.25 1.390625q1.25 1.390625 1.25 3.703125l0 0.125q0 1.4375 -0.546875 2.578125q-0.546875 1.140625 -1.578125 1.78125q-1.015625 0.640625 -2.359375 0.640625q-2.0 0 -3.25 -1.390625q-1.234375 -1.40625 -1.234375 -3.703125l0 -0.109375zm1.6875 0.203125q0 1.640625 0.765625 2.640625q0.765625 0.984375 2.03125 0.984375q1.296875 0 2.046875 -1.0q0.75 -1.015625 0.75 -2.828125q0 -1.625 -0.765625 -2.625q-0.765625 -1.015625 -2.046875 -1.015625q-1.25 0 -2.015625 1.0q-0.765625 0.984375 -0.765625 2.84375zm18.124268 2.484375l1.890625 -7.53125l1.6875 0l-2.859375 9.859375l-1.375 0l-2.390625 -7.46875l-2.328125 7.46875l-1.375 0l-2.859375 -9.859375l1.671875 0l1.953125 7.375l2.28125 -7.375l1.359375 0l2.34375 7.53125z" fill-rule="nonzero"/><path fill="#000000" fill-opacity="0.0" d="m38.958004 14.766404l180.09448 0l0 56.409447l-180.09448 0z" fill-rule="evenodd"/><path fill="#6b96f6" d="m64.52051 43.0539q-0.21875 3.0625 -2.2500038 4.828125q-2.03125 1.75 -5.375 1.75q-3.640625 0 -5.734375 -2.453125q-2.078125 -2.453125 -2.078125 -6.734375l0 -1.171875q0 -2.734375 0.953125 -4.8125q0.96875 -2.078125 2.75 -3.187498q1.796875 -1.125 4.171875 -1.125q3.28125 0 5.28125 1.765625q2.0000038 1.7499981 2.3125038 4.937498l-3.9062538 0q-0.140625 -1.84375 -1.015625 -2.671875q-0.875 -0.828125 -2.671875 -0.828125q-1.953125 0 -2.921875 1.40625q-0.96875 1.390625 -1.0 4.34375l0 1.421875q0 3.078125 0.921875 4.5q0.9375 1.421875 2.9375 1.421875q1.8125 0 2.703125 -0.828125q0.890625 -0.828125 1.03125 -2.5625l3.8906288 0zm6.472351 3.171875l8.296875 0l0 3.140625l-12.203125 0l0 -18.953123l3.90625 0l0 15.812498zm14.6844635 3.140625l-3.90625 0l0 -18.953123l3.90625 0l0 18.953123zm11.189682 1.625l-2.796875 0l6.984375 -20.578123l2.796875 0l-6.984375 20.578123zm21.266953 -4.390625q1.046875 0 1.6875 -0.578125q0.65625 -0.578125 0.6875 -1.53125l3.53125 0q-0.015625 1.4375 -0.78125 2.640625q-0.765625 1.1875 -2.109375 1.84375q-1.328125 0.65625 -2.953125 0.65625q-3.015625 0 -4.765625 -1.921875q-1.734375 -1.921875 -1.734375 -5.3125l0 -0.234375q0 -3.265625 1.734375 -5.203125q1.734375 -1.9375 4.75 -1.9375q2.640625 0 4.234375 1.5q1.59375 1.5 1.625 4.0l-3.53125 0q-0.03125 -1.09375 -0.6875 -1.765625q-0.640625 -0.6875 -1.703125 -0.6875q-1.3125 0 -1.984375 0.953125q-0.671875 0.953125 -0.671875 3.109375l0 0.390625q0 2.171875 0.65625 3.125q0.671875 0.953125 2.015625 0.953125zm7.463318 -4.40625q0 -2.09375 0.796875 -3.734375q0.8125 -1.640625 2.328125 -2.53125q1.515625 -0.90625 3.53125 -0.90625q2.84375 0 4.640625 1.75q1.8125 1.734375 2.015625 4.734375l0.03125 0.96875q0 3.234375 -1.8125 5.203125q-1.8125 1.953125 -4.859375 1.953125q-3.046875 0 -4.859375 -1.953125q-1.8125 -1.953125 -1.8125 -5.3125l0 -0.171875zm3.765625 0.28125q0 2.0 0.75 3.0625q0.75 1.0625 2.15625 1.0625q1.375 0 2.140625 -1.046875q0.765625 -1.0625 0.765625 -3.359375q0 -1.96875 -0.765625 -3.046875q-0.765625 -1.078125 -2.15625 -1.078125q-1.390625 0 -2.140625 1.078125q-0.75 1.0625 -0.75 3.328125zm15.353485 -7.1875l0.125 1.625q1.5 -1.890625 4.046875 -1.890625q2.234375 0 3.328125 1.3125q1.09375 1.3125 1.109375 3.9375l0 9.09375l-3.75 0l0 -9.0q0 -1.203125 -0.53125 -1.734375q-0.515625 -0.546875 -1.71875 -0.546875q-1.59375 0 -2.390625 1.34375l0 9.9375l-3.765625 0l0 -14.078125l3.546875 0zm12.382187 14.078125l0 -11.328125l-2.09375 0l0 -2.75l2.09375 0l0 -0.65625q0.015625 -2.656248 1.625 -4.093748q1.609375 -1.4375 4.546875 -1.4375q1.75 0 4.265625 0.765625l-0.546875 3.109373q-1.28125 -0.375 -1.984375 -0.484375q-0.703125 -0.109375 -1.5 -0.109375q-2.640625 0 -2.640625 2.328125l0 0.578125l2.78125 0l0 2.75l-2.78125 0l0 11.328125l-3.765625 0zm12.1875 0l-3.765625 0l0 -14.078125l3.765625 0l0 14.078125zm2.5613708 -7.140625q0 -3.25 1.546875 -5.21875q1.546875 -1.984375 4.15625 -1.984375q2.328125 0 3.609375 1.59375l0.15625 -1.328125l3.40625 0l0 13.609375q0 1.84375 -0.84375 3.203125q-0.828125 1.375 -2.359375 2.09375q-1.515625 0.71875 -3.5625 0.71875q-1.546875 0 -3.015625 -0.625q-1.46875 -0.609375 -2.234375 -1.59375l1.671875 -2.28125q1.40625 1.5625 3.40625 1.5625q1.5 0 2.328125 -0.796875q0.84375 -0.796875 0.84375 -2.265625l0 -0.75q-1.3125 1.46875 -3.421875 1.46875q-2.546875 0 -4.125 -1.984375q-1.5625 -1.984375 -1.5625 -5.265625l0 -0.15625zm3.765625 0.265625q0 1.921875 0.765625 3.015625q0.78125 1.078125 2.109375 1.078125q1.71875 0 2.46875 -1.296875l0 -5.921875q-0.765625 -1.28125 -2.4375 -1.28125q-1.359375 0 -2.140625 1.109375q-0.765625 1.09375 -0.765625 3.296875z" fill-rule="nonzero"/><path fill="#f8d68a" fill-opacity="0.419" d="m314.8491 22.664204l0 0c0 -4.4879456 3.6381836 -8.126146 8.126129 -8.126146l89.32251 0c2.155182 0 4.222107 0.85614586 5.746063 2.3800945c1.5239563 1.5239468 2.3800964 3.5908642 2.3800964 5.746052l0 32.503613c0 4.4879456 -3.638214 8.126148 -8.12616 8.126148l-89.32251 0c-4.4879456 0 -8.126129 -3.6382027 -8.126129 -8.126148z" fill-rule="evenodd"/><path stroke="#cccccc" stroke-width="1.0" stroke-linejoin="round" stroke-linecap="butt" d="m314.8491 22.664204l0 0c0 -4.4879456 3.6381836 -8.126146 8.126129 -8.126146l89.32251 0c2.155182 0 4.222107 0.85614586 5.746063 2.3800945c1.5239563 1.5239468 2.3800964 3.5908642 2.3800964 5.746052l0 32.503613c0 4.4879456 -3.638214 8.126148 -8.12616 8.126148l-89.32251 0c-4.4879456 0 -8.126129 -3.6382027 -8.126129 -8.126148z" fill-rule="evenodd"/><path fill="#000000" d="m353.6173 41.27351l-1.0625 1.09375l0 3.46875l-1.6875 0l0 -14.0l1.6875 0l0 8.46875l0.90625 -1.078125l3.0625 -3.25l2.046875 0l-3.828125 4.125l4.28125 5.734375l-1.984375 0l-3.421875 -4.5625zm7.533783 4.5625l0 -8.546875l-1.5625 0l0 -1.3125l1.5625 0l0 -1.015625q0 -1.578125 0.84375 -2.4375q0.84375 -0.875 2.390625 -0.875q0.59375 0 1.15625 0.15625l-0.09375 1.375q-0.421875 -0.09375 -0.90625 -0.09375q-0.8125 0 -1.265625 0.484375q-0.4375 0.484375 -0.4375 1.375l0 1.03125l2.09375 0l0 1.3125l-2.09375 0l0 8.546875l-1.6875 0zm9.383118 -1.1875q0.890625 0 1.5625 -0.546875q0.6875 -0.546875 0.75 -1.375l1.59375 0q-0.046875 0.84375 -0.578125 1.609375q-0.53125 0.765625 -1.4375 1.234375q-0.890625 0.453125 -1.890625 0.453125q-2.015625 0 -3.203125 -1.34375q-1.1875 -1.34375 -1.1875 -3.6875l0 -0.28125q0 -1.4375 0.515625 -2.546875q0.53125 -1.125 1.515625 -1.734375q1.0 -0.625 2.34375 -0.625q1.65625 0 2.75 1.0q1.109375 0.984375 1.171875 2.5625l-1.59375 0q-0.0625 -0.953125 -0.71875 -1.5625q-0.65625 -0.625 -1.609375 -0.625q-1.28125 0 -2.0 0.921875q-0.703125 0.921875 -0.703125 2.671875l0 0.328125q0 1.703125 0.703125 2.625q0.703125 0.921875 2.015625 0.921875zm8.093506 -11.0625l0 2.390625l1.84375 0l0 1.3125l-1.84375 0l0 6.109375q0 0.59375 0.234375 0.890625q0.25 0.296875 0.84375 0.296875q0.296875 0 0.8125 -0.109375l0 1.359375q-0.671875 0.1875 -1.296875 0.1875q-1.125 0 -1.703125 -0.6875q-0.578125 -0.6875 -0.578125 -1.9375l0 -6.109375l-1.796875 0l0 -1.3125l1.796875 0l0 -2.390625l1.6875 0zm5.6411133 12.25l-1.6875 0l0 -14.0l1.6875 0l0 14.0z" fill-rule="nonzero"/><path fill="#f8d68a" fill-opacity="0.419" d="m434.4991 22.664204l0 0c0 -4.4879456 3.638214 -8.126146 8.12616 -8.126146l101.79495 0c2.1552124 0 4.222107 0.85614586 5.7460327 2.3800945c1.5239868 1.5239468 2.380127 3.5908642 2.380127 5.746052l0 32.503613c0 4.4879456 -3.6382446 8.126148 -8.12616 8.126148l-101.79495 0l0 0c-4.4879456 0 -8.12616 -3.6382027 -8.12616 -8.126148z" fill-rule="evenodd"/><path stroke="#cccccc" stroke-width="1.0" stroke-linejoin="round" stroke-linecap="butt" d="m434.4991 22.664204l0 0c0 -4.4879456 3.638214 -8.126146 8.12616 -8.126146l101.79495 0c2.1552124 0 4.222107 0.85614586 5.7460327 2.3800945c1.5239868 1.5239468 2.380127 3.5908642 2.380127 5.746052l0 32.503613c0 4.4879456 -3.6382446 8.126148 -8.12616 8.126148l-101.79495 0l0 0c-4.4879456 0 -8.12616 -3.6382027 -8.12616 -8.126148z" fill-rule="evenodd"/><path fill="#000000" d="m467.31503 41.27351l-1.0625 1.09375l0 3.46875l-1.6875 0l0 -14.0l1.6875 0l0 8.46875l0.90625 -1.078125l3.0625 -3.25l2.046875 0l-3.828125 4.125l4.28125 5.734375l-1.984375 0l-3.421875 -4.5625zm12.783783 3.59375q-0.984375 1.15625 -2.890625 1.15625q-1.578125 0 -2.40625 -0.921875q-0.8125 -0.921875 -0.828125 -2.703125l0 -6.421875l1.6875 0l0 6.375q0 2.234375 1.828125 2.234375q1.921875 0 2.5625 -1.4375l0 -7.171875l1.6875 0l0 9.859375l-1.609375 0l-0.03125 -0.96875zm12.550232 -3.84375q0 2.25 -1.046875 3.625q-1.03125 1.375 -2.78125 1.375q-1.875 0 -2.890625 -1.328125l-0.078125 1.140625l-1.546875 0l0 -14.0l1.671875 0l0 5.234375q1.03125 -1.265625 2.8125 -1.265625q1.796875 0 2.828125 1.359375q1.03125 1.34375 1.03125 3.703125l0 0.15625zm-1.6875 -0.203125q0 -1.71875 -0.671875 -2.65625q-0.65625 -0.9375 -1.90625 -0.9375q-1.671875 0 -2.40625 1.546875l0 4.265625q0.78125 1.546875 2.421875 1.546875q1.21875 0 1.890625 -0.9375q0.671875 -0.9375 0.671875 -2.828125zm7.8887024 5.203125q-2.0 0 -3.265625 -1.3125q-1.25 -1.328125 -1.25 -3.53125l0 -0.3125q0 -1.46875 0.5625 -2.609375q0.5625 -1.15625 1.5625 -1.796875q1.015625 -0.65625 2.1875 -0.65625q1.921875 0 2.984375 1.265625q1.0625 1.265625 1.0625 3.625l0 0.6875l-6.671875 0q0.03125 1.46875 0.84375 2.375q0.828125 0.890625 2.078125 0.890625q0.890625 0 1.515625 -0.359375q0.625 -0.375 1.078125 -0.96875l1.03125 0.796875q-1.234375 1.90625 -3.71875 1.90625zm-0.203125 -8.84375q-1.015625 0 -1.71875 0.75q-0.6875 0.734375 -0.84375 2.078125l4.9375 0l0 -0.125q-0.078125 -1.28125 -0.703125 -1.984375q-0.609375 -0.71875 -1.671875 -0.71875zm9.961914 7.46875q0.890625 0 1.5625 -0.546875q0.6875 -0.546875 0.75 -1.375l1.5937805 0q-0.046875 0.84375 -0.5781555 1.609375q-0.53125 0.765625 -1.4375 1.234375q-0.890625 0.453125 -1.890625 0.453125q-2.015625 0 -3.203125 -1.34375q-1.1875 -1.34375 -1.1875 -3.6875l0 -0.28125q0 -1.4375 0.515625 -2.546875q0.53125 -1.125 1.515625 -1.734375q1.0 -0.625 2.34375 -0.625q1.65625 0 2.75 1.0q1.1094055 0.984375 1.1719055 2.5625l-1.5937805 0q-0.0625 -0.953125 -0.71875 -1.5625q-0.65625 -0.625 -1.609375 -0.625q-1.28125 0 -2.0 0.921875q-0.703125 0.921875 -0.703125 2.671875l0 0.328125q0 1.703125 0.703125 2.625q0.703125 0.921875 2.015625 0.921875zm8.093536 -11.0625l0 2.390625l1.84375 0l0 1.3125l-1.84375 0l0 6.109375q0 0.59375 0.234375 0.890625q0.25 0.296875 0.84375 0.296875q0.296875 0 0.8125 -0.109375l0 1.359375q-0.671875 0.1875 -1.296875 0.1875q-1.125 0 -1.703125 -0.6875q-0.578125 -0.6875 -0.578125 -1.9375l0 -6.109375l-1.796875 0l0 -1.3125l1.796875 0l0 -2.390625l1.6875 0zm5.6411133 12.25l-1.6875 0l0 -14.0l1.6875 0l0 14.0z" fill-rule="nonzero"/><path fill="#f8d68a" fill-opacity="0.419" d="m566.6216 22.391233l0 0c0 -4.3371887 3.5159912 -7.853176 7.8532104 -7.853176l110.214905 0c2.0827637 0 4.080261 0.8273859 5.5530396 2.3001423c1.4727173 1.4727554 2.3001099 3.4702415 2.3001099 5.553034l0 31.41176c0 4.3371887 -3.5159912 7.8531723 -7.8531494 7.8531723l-110.214905 0l0 0c-4.337219 0 -7.8532104 -3.5159836 -7.8532104 -7.8531723z" fill-rule="evenodd"/><path stroke="#cccccc" stroke-width="1.0" stroke-linejoin="round" stroke-linecap="butt" d="m566.6216 22.391233l0 0c0 -4.3371887 3.5159912 -7.853176 7.8532104 -7.853176l110.214905 0c2.0827637 0 4.080261 0.8273859 5.5530396 2.3001423c1.4727173 1.4727554 2.3001099 3.4702415 2.3001099 5.553034l0 31.41176c0 4.3371887 -3.5159912 7.8531723 -7.8531494 7.8531723l-110.214905 0l0 0c-4.337219 0 -7.8532104 -3.5159836 -7.8532104 -7.8531723z" fill-rule="evenodd"/><path fill="#000000" d="m590.7261 40.45461l-1.0625 1.09375l0 3.46875l-1.6875 0l0 -13.999998l1.6875 0l0 8.468748l0.90625 -1.078125l3.0625 -3.25l2.046875 0l-3.828125 4.125l4.28125 5.734375l-1.984375 0l-3.421875 -4.5625zm12.783752 3.59375q-0.984375 1.15625 -2.890625 1.15625q-1.578125 0 -2.40625 -0.921875q-0.8125 -0.921875 -0.828125 -2.703125l0 -6.421875l1.6875 0l0 6.375q0 2.234375 1.828125 2.234375q1.921875 0 2.5625 -1.4375l0 -7.171875l1.6875 0l0 9.859375l-1.609375 0l-0.03125 -0.96875zm9.940918 -1.640625q0 -0.6875 -0.515625 -1.0625q-0.515625 -0.375 -1.796875 -0.640625q-1.28125 -0.28125 -2.03125 -0.65625q-0.75 -0.390625 -1.109375 -0.921875q-0.359375 -0.53125 -0.359375 -1.265625q0 -1.203125 1.015625 -2.03125q1.03125 -0.84375 2.625 -0.84375q1.671875 0 2.71875 0.859375q1.046875 0.859375 1.046875 2.21875l-1.6875 0q0 -0.703125 -0.59375 -1.203125q-0.59375 -0.5 -1.484375 -0.5q-0.921875 0 -1.4375 0.40625q-0.515625 0.390625 -0.515625 1.046875q0 0.609375 0.484375 0.921875q0.484375 0.3125 1.734375 0.59375q1.265625 0.28125 2.046875 0.671875q0.78125 0.390625 1.15625 0.9375q0.390625 0.546875 0.390625 1.34375q0 1.328125 -1.0625 2.125q-1.046875 0.796875 -2.734375 0.796875q-1.1875 0 -2.109375 -0.421875q-0.90625 -0.421875 -1.421875 -1.171875q-0.515625 -0.75 -0.515625 -1.625l1.6875 0q0.046875 0.84375 0.671875 1.34375q0.640625 0.5 1.6875 0.5q0.953125 0 1.53125 -0.390625q0.578125 -0.390625 0.578125 -1.03125zm6.166504 -9.640625l0 2.390625l1.84375 0l0 1.3125l-1.84375 0l0 6.109375q0 0.59375 0.234375 0.890625q0.25 0.296875 0.84375 0.296875q0.296875 0 0.8125 -0.109375l0 1.359375q-0.671875 0.1875 -1.296875 0.1875q-1.125 0 -1.703125 -0.6875q-0.578125 -0.6875 -0.578125 -1.9375l0 -6.109375l-1.796875 0l0 -1.3125l1.796875 0l0 -2.390625l1.6875 0zm3.1775513 7.234375q0 -1.453125 0.5625 -2.609375q0.578125 -1.15625 1.59375 -1.78125q1.015625 -0.625 2.3125 -0.625q2.015625 0 3.25 1.390625q1.25 1.390625 1.25 3.703125l0 0.125q0 1.4375 -0.546875 2.578125q-0.546875 1.140625 -1.578125 1.78125q-1.015625 0.640625 -2.359375 0.640625q-2.0 0 -3.25 -1.390625q-1.234375 -1.40625 -1.234375 -3.703125l0 -0.109375zm1.6875 0.203125q0 1.640625 0.765625 2.640625q0.765625 0.984375 2.03125 0.984375q1.296875 0 2.046875 -1.0q0.75 -1.015625 0.75 -2.828125q0 -1.625 -0.765625 -2.625q-0.765625 -1.015625 -2.046875 -1.015625q-1.25 0 -2.015625 1.0q-0.765625 0.984375 -0.765625 2.84375zm10.983643 -5.046875l0.046875 1.09375q1.078125 -1.265625 2.921875 -1.265625q2.0625 0 2.8125 1.578125q0.5 -0.71875 1.28125 -1.140625q0.796875 -0.4375 1.859375 -0.4375q3.25 0 3.296875 3.421875l0 6.609375l-1.671875 0l0 -6.5q0 -1.0625 -0.484375 -1.578125q-0.484375 -0.53125 -1.625 -0.53125q-0.9375 0 -1.5625 0.5625q-0.609375 0.5625 -0.71875 1.5l0 6.546875l-1.6875 0l0 -6.453125q0 -2.15625 -2.109375 -2.15625q-1.65625 0 -2.265625 1.40625l0 7.203125l-1.6875 0l0 -9.859375l1.59375 0zm16.601562 9.859375l-1.6875 0l0 -9.859375l1.6875 0l0 9.859375zm-1.828125 -12.46875q0 -0.40625 0.25 -0.6874981q0.25 -0.296875 0.734375 -0.296875q0.5 0 0.75 0.296875q0.265625 0.2812481 0.265625 0.6874981q0 0.40625 -0.265625 0.6875q-0.25 0.265625 -0.75 0.265625q-0.484375 0 -0.734375 -0.265625q-0.25 -0.28125 -0.25 -0.6875zm6.10553 11.09375l5.765625 0l0 1.375l-7.828125 0l0 -1.234375l5.4375 -7.234375l-5.34375 0l0 -1.390625l7.46875 0l0 1.203125l-5.5 7.28125zm11.600342 1.5625q-2.0 0 -3.265625 -1.3125q-1.25 -1.328125 -1.25 -3.53125l0 -0.3125q0 -1.46875 0.5625 -2.609375q0.5625 -1.15625 1.5625 -1.796875q1.015625 -0.65625 2.1875 -0.65625q1.921875 0 2.984375 1.265625q1.0625 1.265625 1.0625 3.625l0 0.6875l-6.671875 0q0.03125 1.46875 0.84375 2.375q0.828125 0.890625 2.078125 0.890625q0.890625 0 1.515625 -0.359375q0.625 -0.375 1.078125 -0.96875l1.03125 0.796875q-1.234375 1.90625 -3.71875 1.90625zm-0.203125 -8.84375q-1.015625 0 -1.71875 0.75q-0.6875 0.734375 -0.84375 2.078125l4.9375 0l0 -0.125q-0.078125 -1.28125 -0.703125 -1.984375q-0.609375 -0.71875 -1.671875 -0.71875z" fill-rule="nonzero"/><path fill="#000000" fill-opacity="0.0" d="m38.958004 281.30237l190.4567 0l0 56.409454l-190.4567 0z" fill-rule="evenodd"/><path fill="#6b96f6" d="m53.801754 315.90237l-3.90625 0l0 -18.953125l3.90625 0l0 18.953125zm6.832901 -14.078125l0.125 1.625q1.5 -1.890625 4.046879 -1.890625q2.234375 0 3.328125 1.3125q1.09375 1.3125 1.109375 3.9375l0 9.09375l-3.75 0l0 -9.0q0 -1.203125 -0.53125 -1.734375q-0.515625 -0.546875 -1.7187538 -0.546875q-1.59375 0 -2.390625 1.34375l0 9.9375l-3.765625 0l0 -14.078125l3.546875 0zm12.491566 14.078125l0 -11.328125l-2.09375 0l0 -2.75l2.09375 0l0 -1.203125q0 -2.375 1.359375 -3.671875q1.359375 -1.3125 3.8125 -1.3125q0.78125 0 1.90625 0.265625l-0.03125 2.90625q-0.46875 -0.109375 -1.140625 -0.109375q-2.125 0 -2.125 1.984375l0 1.140625l2.796875 0l0 2.75l-2.796875 0l0 11.328125l-3.78125 0zm16.444183 -10.5625q-0.765625 -0.09375 -1.359375 -0.09375q-2.125 0 -2.796875 1.4375l0 9.21875l-3.765625 0l0 -14.078125l3.5625 0l0.109375 1.671875q1.125 -1.9375 3.125 -1.9375q0.625 0 1.171875 0.171875l-0.046875 3.609375zm9.582138 10.5625q-0.265625 -0.5 -0.375 -1.265625q-1.375 1.53125 -3.5625 1.53125q-2.0625 0 -3.421875 -1.203125q-1.359375 -1.203125 -1.359375 -3.015625q0 -2.25 1.65625 -3.4375q1.65625 -1.203125 4.796875 -1.21875l1.734375 0l0 -0.796875q0 -0.984375 -0.515625 -1.5625q-0.5 -0.59375 -1.578125 -0.59375q-0.9375 0 -1.484375 0.46875q-0.546875 0.453125 -0.546875 1.234375l-3.75 0q0 -1.21875 0.75 -2.25q0.75 -1.046875 2.125 -1.640625q1.390625 -0.59375 3.109375 -0.59375q2.59375 0 4.125 1.3125q1.53125 1.296875 1.53125 3.671875l0 6.109375q0.015625 2.0 0.5625 3.03125l0 0.21875l-3.796875 0zm-3.109375 -2.609375q0.828125 0 1.53125 -0.375q0.703125 -0.375 1.046875 -1.0l0 -2.421875l-1.40625 0q-2.828125 0 -3.015625 1.953125l-0.015625 0.21875q0 0.703125 0.5 1.171875q0.5 0.453125 1.359375 0.453125zm16.869415 -1.28125q0 -0.6875 -0.6875 -1.078125q-0.6875 -0.40625 -2.1875 -0.71875q-5.03125 -1.046875 -5.03125 -4.265625q0 -1.875 1.546875 -3.125q1.5625 -1.265625 4.078125 -1.265625q2.671875 0 4.28125 1.265625q1.609375 1.265625 1.609375 3.28125l-3.765625 0q0 -0.8125 -0.515625 -1.328125q-0.515625 -0.53125 -1.625 -0.53125q-0.953125 0 -1.46875 0.4375q-0.515625 0.421875 -0.515625 1.078125q0 0.625 0.578125 1.015625q0.59375 0.375 2.0 0.65625q1.40625 0.28125 2.375 0.640625q2.984375 1.09375 2.984375 3.78125q0 1.921875 -1.65625 3.125q-1.65625 1.1875 -4.265625 1.1875q-1.78125 0 -3.15625 -0.625q-1.359375 -0.640625 -2.140625 -1.734375q-0.78125 -1.109375 -0.78125 -2.390625l3.5625 0q0.046875 1.015625 0.734375 1.546875q0.703125 0.53125 1.859375 0.53125q1.078125 0 1.625 -0.40625q0.5625 -0.421875 0.5625 -1.078125zm10.580582 -13.65625l0 3.46875l2.40625 0l0 2.75l-2.40625 0l0 7.03125q0 0.78125 0.296875 1.125q0.296875 0.328125 1.140625 0.328125q0.625 0 1.109375 -0.078125l0 2.84375q-1.109375 0.34375 -2.28125 0.34375q-3.953125 0 -4.03125 -4.0l0 -7.59375l-2.0625 0l0 -2.75l2.0625 0l0 -3.46875l3.765625 0zm12.413147 6.984375q-0.765625 -0.09375 -1.359375 -0.09375q-2.125 0 -2.796875 1.4375l0 9.21875l-3.765625 0l0 -14.078125l3.5625 0l0.109375 1.671875q1.125 -1.9375 3.125 -1.9375q0.625 0 1.171875 0.171875l-0.046875 3.609375zm10.238388 9.125q-1.390625 1.703125 -3.84375 1.703125q-2.265625 0 -3.46875 -1.296875q-1.1875 -1.3125 -1.203125 -3.828125l0 -9.21875l3.75 0l0 9.09375q0 2.203125 2.015625 2.203125q1.90625 0 2.625 -1.328125l0 -9.96875l3.765625 0l0 14.078125l-3.53125 0l-0.109375 -1.4375zm12.337921 -1.328125q1.046875 0 1.6875 -0.578125q0.65625 -0.578125 0.6875 -1.53125l3.53125 0q-0.015625 1.4375 -0.78125 2.640625q-0.765625 1.1875 -2.109375 1.84375q-1.328125 0.65625 -2.953125 0.65625q-3.015625 0 -4.765625 -1.921875q-1.734375 -1.921875 -1.734375 -5.3125l0 -0.234375q0 -3.265625 1.734375 -5.203125q1.734375 -1.9375 4.75 -1.9375q2.640625 0 4.234375 1.5q1.59375 1.5 1.625 4.0l-3.53125 0q-0.03125 -1.09375 -0.6875 -1.765625q-0.640625 -0.6875 -1.703125 -0.6875q-1.3125 0 -1.984375 0.953125q-0.671875 0.953125 -0.671875 3.109375l0 0.390625q0 2.171875 0.65625 3.125q0.671875 0.953125 2.015625 0.953125zm12.557068 -14.78125l0 3.46875l2.40625 0l0 2.75l-2.40625 0l0 7.03125q0 0.78125 0.296875 1.125q0.296875 0.328125 1.140625 0.328125q0.625 0 1.109375 -0.078125l0 2.84375q-1.109375 0.34375 -2.28125 0.34375q-3.953125 0 -4.03125 -4.0l0 -7.59375l-2.0625 0l0 -2.75l2.0625 0l0 -3.46875l3.765625 0zm12.928772 16.109375q-1.390625 1.703125 -3.84375 1.703125q-2.265625 0 -3.46875 -1.296875q-1.1875 -1.3125 -1.203125 -3.828125l0 -9.21875l3.75 0l0 9.09375q0 2.203125 2.015625 2.203125q1.90625 0 2.625 -1.328125l0 -9.96875l3.765625 0l0 14.078125l-3.53125 0l-0.109375 -1.4375zm14.400421 -9.125q-0.765625 -0.09375 -1.359375 -0.09375q-2.125 0 -2.796875 1.4375l0 9.21875l-3.765625 0l0 -14.078125l3.5625 0l0.109375 1.671875q1.125 -1.9375 3.125 -1.9375q0.625 0 1.171875 0.171875l-0.046875 3.609375zm8.037872 10.828125q-3.09375 0 -5.046875 -1.90625q-1.9375 -1.90625 -1.9375 -5.0625l0 -0.359375q0 -2.125 0.8125 -3.796875q0.828125 -1.671875 2.328125 -2.578125q1.5 -0.90625 3.4375 -0.90625q2.890625 0 4.546875 1.828125q1.65625 1.8125 1.65625 5.15625l0 1.546875l-8.96875 0q0.1875 1.375 1.09375 2.21875q0.921875 0.828125 2.328125 0.828125q2.171875 0 3.40625 -1.578125l1.84375 2.0625q-0.84375 1.203125 -2.296875 1.875q-1.4375 0.671875 -3.203125 0.671875zm-0.421875 -11.5625q-1.125 0 -1.828125 0.765625q-0.6875 0.75 -0.875 2.15625l5.21875 0l0 -0.3125q-0.015625 -1.25 -0.671875 -1.921875q-0.65625 -0.6875 -1.84375 -0.6875z" fill-rule="nonzero"/><path fill="#eeeeee" d="m693.8937 203.7587l0 0c0 -4.4879456 3.6382446 -8.126144 8.12616 -8.126144l96.56659 0c2.1552124 0 4.222107 0.85614014 5.7460938 2.3800812c1.5239258 1.5239563 2.380066 3.590866 2.380066 5.746063l0 32.5036c0 4.4879456 -3.6381836 8.12616 -8.12616 8.12616l-96.56659 0c-4.487915 0 -8.12616 -3.638214 -8.12616 -8.12616z" fill-rule="evenodd"/><path stroke="#cccccc" stroke-width="1.0" stroke-linejoin="round" stroke-linecap="butt" d="m693.8937 203.7587l0 0c0 -4.4879456 3.6382446 -8.126144 8.12616 -8.126144l96.56659 0c2.1552124 0 4.222107 0.85614014 5.7460938 2.3800812c1.5239258 1.5239563 2.380066 3.590866 2.380066 5.746063l0 32.5036c0 4.4879456 -3.6381836 8.12616 -8.12616 8.12616l-96.56659 0c-4.487915 0 -8.12616 -3.638214 -8.12616 -8.12616z" fill-rule="evenodd"/><path fill="#000000" d="m719.77014 218.743l3.1875 -5.078125l2.0625 0l-4.1875 6.578125l4.28125 6.6875l-2.078125 0l-3.265625 -5.171875l-3.265625 5.171875l-2.078125 0l4.296875 -6.6875l-4.1875 -6.578125l2.046875 0l3.1875 5.078125zm16.9375 6.453125q-0.671875 0.953125 -1.875 1.4375q-1.203125 0.484375 -2.8125 0.484375q-1.625 0 -2.890625 -0.765625q-1.25 -0.765625 -1.9375 -2.15625q-0.6875 -1.40625 -0.703125 -3.265625l0 -1.15625q0 -2.984375 1.390625 -4.640625q1.40625 -1.65625 3.9375 -1.65625q2.078125 0 3.34375 1.0625q1.265625 1.0625 1.546875 3.015625l-1.75 0q-0.484375 -2.625 -3.125 -2.625q-1.765625 0 -2.671875 1.234375q-0.90625 1.234375 -0.90625 3.5625l0 1.09375q0 2.234375 1.015625 3.546875q1.015625 1.3125 2.765625 1.3125q0.984375 0 1.71875 -0.21875q0.734375 -0.21875 1.21875 -0.734375l0 -2.984375l-3.078125 0l0 -1.421875l4.8125 0l0 4.875zm2.9265137 1.734375l0 -13.265625l4.328125 0q2.15625 0 3.25 0.890625q1.09375 0.890625 1.09375 2.640625q0 0.9375 -0.53125 1.65625q-0.53125 0.703125 -1.4375 1.09375q1.0625 0.3125 1.6875 1.15625q0.625 0.84375 0.625 2.0q0 1.78125 -1.15625 2.8125q-1.15625 1.015625 -3.265625 1.015625l-4.59375 0zm1.734375 -6.203125l0 4.765625l2.890625 0q1.21875 0 1.921875 -0.625q0.71875 -0.640625 0.71875 -1.75q0 -2.390625 -2.609375 -2.390625l-2.921875 0zm0 -1.40625l2.65625 0q1.140625 0 1.828125 -0.5625q0.6875 -0.578125 0.6875 -1.5625q0 -1.09375 -0.640625 -1.59375q-0.640625 -0.5 -1.9375 -0.5l-2.59375 0l0 4.21875zm9.161438 2.59375q0 -1.453125 0.5625 -2.609375q0.578125 -1.15625 1.59375 -1.78125q1.015625 -0.625 2.3125 -0.625q2.015625 0 3.25 1.390625q1.25 1.390625 1.25 3.703125l0 0.125q0 1.4375 -0.546875 2.578125q-0.546875 1.140625 -1.578125 1.78125q-1.015625 0.640625 -2.359375 0.640625q-2.0 0 -3.25 -1.390625q-1.234375 -1.40625 -1.234375 -3.703125l0 -0.109375zm1.6875 0.203125q0 1.640625 0.765625 2.640625q0.765625 0.984375 2.03125 0.984375q1.296875 0 2.046875 -1.0q0.75 -1.015625 0.75 -2.828125q0 -1.625 -0.765625 -2.625q-0.765625 -1.015625 -2.046875 -1.015625q-1.25 0 -2.015625 1.0q-0.765625 0.984375 -0.765625 2.84375zm8.952393 -0.203125q0 -1.453125 0.5625 -2.609375q0.578125 -1.15625 1.59375 -1.78125q1.015625 -0.625 2.3125 -0.625q2.015625 0 3.25 1.390625q1.25 1.390625 1.25 3.703125l0 0.125q0 1.4375 -0.546875 2.578125q-0.546875 1.140625 -1.578125 1.78125q-1.015625 0.640625 -2.359375 0.640625q-2.0 0 -3.25 -1.390625q-1.234375 -1.40625 -1.234375 -3.703125l0 -0.109375zm1.6875 0.203125q0 1.640625 0.765625 2.640625q0.765625 0.984375 2.03125 0.984375q1.296875 0 2.046875 -1.0q0.75 -1.015625 0.75 -2.828125q0 -1.625 -0.765625 -2.625q-0.765625 -1.015625 -2.046875 -1.015625q-1.25 0 -2.015625 1.0q-0.765625 0.984375 -0.765625 2.84375zm15.139893 2.203125q0 -0.6875 -0.515625 -1.0625q-0.515625 -0.375 -1.796875 -0.640625q-1.28125 -0.28125 -2.03125 -0.65625q-0.75 -0.390625 -1.109375 -0.921875q-0.359375 -0.53125 -0.359375 -1.265625q0 -1.203125 1.015625 -2.03125q1.03125 -0.84375 2.625 -0.84375q1.671875 0 2.71875 0.859375q1.046875 0.859375 1.046875 2.21875l-1.6875 0q0 -0.703125 -0.59375 -1.203125q-0.59375 -0.5 -1.484375 -0.5q-0.921875 0 -1.4375 0.40625q-0.515625 0.390625 -0.515625 1.046875q0 0.609375 0.484375 0.921875q0.484375 0.3125 1.734375 0.59375q1.265625 0.28125 2.046875 0.671875q0.78125 0.390625 1.15625 0.9375q0.390625 0.546875 0.390625 1.34375q0 1.328125 -1.0625 2.125q-1.046875 0.796875 -2.734375 0.796875q-1.1875 0 -2.109375 -0.421875q-0.90625 -0.421875 -1.421875 -1.171875q-0.515625 -0.75 -0.515625 -1.625l1.6875 0q0.046875 0.84375 0.671875 1.34375q0.640625 0.5 1.6875 0.5q0.953125 0 1.53125 -0.390625q0.578125 -0.390625 0.578125 -1.03125zm6.166504 -9.640625l0 2.390625l1.84375 0l0 1.3125l-1.84375 0l0 6.109375q0 0.59375 0.234375 0.890625q0.25 0.296875 0.84375 0.296875q0.296875 0 0.8125 -0.109375l0 1.359375q-0.671875 0.1875 -1.296875 0.1875q-1.125 0 -1.703125 -0.6875q-0.578125 -0.6875 -0.578125 -1.9375l0 -6.109375l-1.796875 0l0 -1.3125l1.796875 0l0 -2.390625l1.6875 0z" fill-rule="nonzero"/><path fill="#3371e3" d="m314.8491 367.20908l0 0c0 -7.300171 5.917938 -13.21814 13.218109 -13.21814l588.08344 0c3.5056763 0 6.867737 1.3926392 9.346619 3.871521c2.4788818 2.4788513 3.871521 5.8409424 3.871521 9.346619l0 52.87085c0 7.300171 -5.9179688 13.218109 -13.21814 13.218109l-588.08344 0l0 0c-7.300171 0 -13.218109 -5.917938 -13.218109 -13.218109z" fill-rule="evenodd"/><path stroke="#cccccc" stroke-width="1.0" stroke-linejoin="round" stroke-linecap="butt" d="m314.8491 367.20908l0 0c0 -7.300171 5.917938 -13.21814 13.218109 -13.21814l588.08344 0c3.5056763 0 6.867737 1.3926392 9.346619 3.871521c2.4788818 2.4788513 3.871521 5.8409424 3.871521 9.346619l0 52.87085c0 7.300171 -5.9179688 13.218109 -13.21814 13.218109l-588.08344 0l0 0c-7.300171 0 -13.218109 -5.917938 -13.218109 -13.218109z" fill-rule="evenodd"/><path fill="#ffffff" d="m549.73395 394.78638l-2.78125 2.890625l0 7.6875l-3.0 0l0 -22.75l3.0 0l0 11.25l10.109375 -11.25l3.625 0l-8.953125 10.046875l9.65625 12.703125l-3.59375 0l-8.0625 -10.578125zm23.90625 8.90625q-1.6875 1.984375 -4.953125 1.984375q-2.703125 0 -4.125 -1.5625q-1.40625 -1.578125 -1.421875 -4.65625l0 -11.0l2.890625 0l0 10.921875q0 3.84375 3.125 3.84375q3.3125 0 4.40625 -2.46875l0 -12.296875l2.890625 0l0 16.90625l-2.75 0l-0.0625 -1.671875zm21.515625 -6.59375q0 3.875 -1.78125 6.234375q-1.78125 2.34375 -4.78125 2.34375q-3.203125 0 -4.953125 -2.265625l-0.140625 1.953125l-2.65625 0l0 -24.0l2.890625 0l0 8.953125q1.75 -2.171875 4.828125 -2.171875q3.078125 0 4.828125 2.328125q1.765625 2.328125 1.765625 6.375l0 0.25zm-2.890625 -0.328125q0 -2.953125 -1.140625 -4.5625q-1.140625 -1.609375 -3.28125 -1.609375q-2.859375 0 -4.109375 2.65625l0 7.3125q1.328125 2.65625 4.140625 2.65625q2.078125 0 3.234375 -1.609375q1.15625 -1.609375 1.15625 -4.84375zm13.546875 8.90625q-3.4375 0 -5.59375 -2.25q-2.15625 -2.265625 -2.15625 -6.046875l0 -0.53125q0 -2.515625 0.953125 -4.484375q0.96875 -1.984375 2.6875 -3.09375q1.734375 -1.125 3.75 -1.125q3.296875 0 5.125 2.171875q1.828125 2.171875 1.828125 6.21875l0 1.203125l-11.453125 0q0.0625 2.5 1.453125 4.046875q1.40625 1.53125 3.5625 1.53125q1.53125 0 2.59375 -0.625q1.0625 -0.625 1.859375 -1.65625l1.765625 1.375q-2.125 3.265625 -6.375 3.265625zm-0.359375 -15.15625q-1.75 0 -2.9375 1.28125q-1.1875 1.265625 -1.46875 3.5625l8.46875 0l0 -0.21875q-0.125 -2.203125 -1.1875 -3.40625q-1.0625 -1.21875 -2.875 -1.21875zm18.46875 0.53125q-0.65625 -0.109375 -1.421875 -0.109375q-2.84375 0 -3.859375 2.421875l0 12.0l-2.890625 0l0 -16.90625l2.8125 0l0.046875 1.953125q1.421875 -2.265625 4.03125 -2.265625q0.84375 0 1.28125 0.21875l0 2.6875zm5.390625 -2.59375l0.09375 2.125q1.9375 -2.4375 5.0625 -2.4375q5.359375 0 5.40625 6.046875l0 11.171875l-2.890625 0l0 -11.1875q-0.015625 -1.828125 -0.84375 -2.703125q-0.8125 -0.875 -2.546875 -0.875q-1.40625 0 -2.46875 0.75q-1.0625 0.75 -1.65625 1.96875l0 12.046875l-2.890625 0l0 -16.90625l2.734375 0zm21.9375 17.21875q-3.4375 0 -5.59375 -2.25q-2.15625 -2.265625 -2.15625 -6.046875l0 -0.53125q0 -2.515625 0.953125 -4.484375q0.96875 -1.984375 2.6875 -3.09375q1.734375 -1.125 3.75 -1.125q3.296875 0 5.125 2.171875q1.828125 2.171875 1.828125 6.21875l0 1.203125l-11.453125 0q0.0625 2.5 1.453125 4.046875q1.40625 1.53125 3.5625 1.53125q1.53125 0 2.59375 -0.625q1.0625 -0.625 1.859375 -1.65625l1.765625 1.375q-2.125 3.265625 -6.375 3.265625zm-0.359375 -15.15625q-1.75 0 -2.9375 1.28125q-1.1875 1.265625 -1.46875 3.5625l8.46875 0l0 -0.21875q-0.125 -2.203125 -1.1875 -3.40625q-1.0625 -1.21875 -2.875 -1.21875zm14.21875 -6.15625l0 4.09375l3.15625 0l0 2.234375l-3.15625 0l0 10.484375q0 1.015625 0.421875 1.53125q0.421875 0.5 1.4375 0.5q0.5 0 1.375 -0.1875l0 2.34375q-1.140625 0.3125 -2.21875 0.3125q-1.9375 0 -2.921875 -1.171875q-0.984375 -1.171875 -0.984375 -3.328125l0 -10.484375l-3.078125 0l0 -2.234375l3.078125 0l0 -4.09375l2.890625 0zm13.546875 21.3125q-3.4375 0 -5.59375 -2.25q-2.15625 -2.265625 -2.15625 -6.046875l0 -0.53125q0 -2.515625 0.953125 -4.484375q0.96875 -1.984375 2.6875 -3.09375q1.734375 -1.125 3.75 -1.125q3.296875 0 5.125 2.171875q1.828125 2.171875 1.828125 6.21875l0 1.203125l-11.453125 0q0.0625 2.5 1.453125 4.046875q1.40625 1.53125 3.5625 1.53125q1.53125 0 2.59375 -0.625q1.0625 -0.625 1.859375 -1.65625l1.765625 1.375q-2.125 3.265625 -6.375 3.265625zm-0.359375 -15.15625q-1.75 0 -2.9375 1.28125q-1.1875 1.265625 -1.46875 3.5625l8.46875 0l0 -0.21875q-0.125 -2.203125 -1.1875 -3.40625q-1.0625 -1.21875 -2.875 -1.21875zm20.140625 10.359375q0 -1.171875 -0.890625 -1.8125q-0.875 -0.65625 -3.078125 -1.125q-2.1875 -0.46875 -3.484375 -1.125q-1.28125 -0.65625 -1.90625 -1.5625q-0.609375 -0.90625 -0.609375 -2.15625q0 -2.078125 1.75 -3.515625q1.765625 -1.4375 4.5 -1.4375q2.875 0 4.65625 1.484375q1.796875 1.484375 1.796875 3.796875l-2.90625 0q0 -1.1875 -1.015625 -2.046875q-1.0 -0.859375 -2.53125 -0.859375q-1.578125 0 -2.46875 0.6875q-0.890625 0.6875 -0.890625 1.796875q0 1.046875 0.828125 1.578125q0.828125 0.53125 2.984375 1.015625q2.171875 0.484375 3.515625 1.15625q1.34375 0.671875 1.984375 1.625q0.65625 0.9375 0.65625 2.296875q0 2.265625 -1.8125 3.640625q-1.8125 1.359375 -4.703125 1.359375q-2.03125 0 -3.59375 -0.71875q-1.5625 -0.71875 -2.453125 -2.0q-0.875 -1.296875 -0.875 -2.796875l2.890625 0q0.078125 1.453125 1.15625 2.3125q1.09375 0.84375 2.875 0.84375q1.640625 0 2.625 -0.65625q1.0 -0.671875 1.0 -1.78125z" fill-rule="nonzero"/><path fill="#eeeeee" d="m452.5643 286.26788l0 0c0 -4.6474 3.767456 -8.414856 8.414856 -8.414856l88.74509 0c2.2317505 0 4.3721313 0.88656616 5.9501953 2.4646606c1.578125 1.5780945 2.4646606 3.7184448 2.4646606 5.9501953l0 33.658447c0 4.6474 -3.767456 8.414886 -8.414856 8.414886l-88.74509 0l0 0c-4.6474 0 -8.414856 -3.7674866 -8.414856 -8.414886z" fill-rule="evenodd"/><path stroke="#cccccc" stroke-width="1.0" stroke-linejoin="round" stroke-linecap="butt" d="m452.5643 286.26788l0 0c0 -4.6474 3.767456 -8.414856 8.414856 -8.414856l88.74509 0c2.2317505 0 4.3721313 0.88656616 5.9501953 2.4646606c1.578125 1.5780945 2.4646606 3.7184448 2.4646606 5.9501953l0 33.658447c0 4.6474 -3.767456 8.414886 -8.414856 8.414886l-88.74509 0l0 0c-4.6474 0 -8.414856 -3.7674866 -8.414856 -8.414886z" fill-rule="evenodd"/><path fill="#000000" d="m494.50275 306.54837l-5.546875 0l-1.25 3.46875l-1.8125 0l5.0625 -13.265625l1.53125 0l5.078125 13.265625l-1.796875 0l-1.265625 -3.46875zm-5.03125 -1.4375l4.515625 0l-2.265625 -6.203125l-2.25 6.203125zm14.389038 -3.4375q-0.390625 -0.0625 -0.84375 -0.0625q-1.65625 0 -2.25 1.40625l0 7.0l-1.671875 0l0 -9.859375l1.640625 0l0.015625 1.140625q0.828125 -1.3125 2.359375 -1.3125q0.484375 0 0.75 0.125l0 1.5625zm0.9678345 3.328125q0 -2.296875 1.0625 -3.65625q1.0625 -1.359375 2.828125 -1.359375q1.796875 0 2.8125 1.265625l0.078125 -1.09375l1.546875 0l0 9.625q0 1.90625 -1.140625 3.0q-1.125 1.109375 -3.046875 1.109375q-1.0625 0 -2.09375 -0.453125q-1.015625 -0.453125 -1.546875 -1.25l0.875 -1.0q1.078125 1.328125 2.65625 1.328125q1.21875 0 1.90625 -0.6875q0.6875 -0.6875 0.6875 -1.953125l0 -0.84375q-1.0 1.171875 -2.75 1.171875q-1.734375 0 -2.8125 -1.390625q-1.0625 -1.40625 -1.0625 -3.8125zm1.6875 0.203125q0 1.65625 0.6875 2.609375q0.6875 0.953125 1.921875 0.953125q1.59375 0 2.328125 -1.453125l0 -4.5q-0.765625 -1.40625 -2.3125 -1.40625q-1.234375 0 -1.9375 0.953125q-0.6875 0.953125 -0.6875 2.84375zm8.732422 -0.203125q0 -1.453125 0.5625 -2.609375q0.578125 -1.15625 1.59375 -1.78125q1.015625 -0.625 2.3125 -0.625q2.015625 0 3.25 1.390625q1.25 1.390625 1.25 3.703125l0 0.125q0 1.4375 -0.546875 2.578125q-0.546875 1.140625 -1.578125 1.78125q-1.015625 0.640625 -2.359375 0.640625q-2.0 0 -3.25 -1.390625q-1.234375 -1.40625 -1.234375 -3.703125l0 -0.109375zm1.6875 0.203125q0 1.640625 0.765625 2.640625q0.765625 0.984375 2.03125 0.984375q1.296875 0 2.046875 -1.0q0.75 -1.015625 0.75 -2.828125q0 -1.625 -0.765625 -2.625q-0.765625 -1.015625 -2.046875 -1.015625q-1.25 0 -2.015625 1.0q-0.765625 0.984375 -0.765625 2.84375z" fill-rule="nonzero"/><path fill="#eeeeee" d="m576.7953 286.26788l0 0c0 -4.6474 3.767456 -8.414856 8.414856 -8.414856l109.09155 0c2.2317505 0 4.3720703 0.88656616 5.9501953 2.4646606c1.578064 1.5780945 2.4646606 3.7184448 2.4646606 5.9501953l0 33.658447c0 4.6474 -3.767456 8.414886 -8.414856 8.414886l-109.09155 0l0 0c-4.6474 0 -8.414856 -3.7674866 -8.414856 -8.414886z" fill-rule="evenodd"/><path stroke="#cccccc" stroke-width="1.0" stroke-linejoin="round" stroke-linecap="butt" d="m576.7953 286.26788l0 0c0 -4.6474 3.767456 -8.414856 8.414856 -8.414856l109.09155 0c2.2317505 0 4.3720703 0.88656616 5.9501953 2.4646606c1.578064 1.5780945 2.4646606 3.7184448 2.4646606 5.9501953l0 33.658447c0 4.6474 -3.767456 8.414886 -8.414856 8.414886l-109.09155 0l0 0c-4.6474 0 -8.414856 -3.7674866 -8.414856 -8.414886z" fill-rule="evenodd"/><path fill="#000000" d="m592.5706 304.82962l0 5.1875l-1.734375 0l0 -13.265625l4.890625 0q2.171875 0 3.40625 1.109375q1.234375 1.109375 1.234375 2.953125q0 1.921875 -1.21875 2.96875q-1.203125 1.046875 -3.453125 1.046875l-3.125 0zm0 -1.4375l3.15625 0q1.390625 0 2.140625 -0.65625q0.75 -0.65625 0.75 -1.90625q0 -1.1875 -0.75 -1.890625q-0.75 -0.71875 -2.046875 -0.75l-3.25 0l0 5.203125zm14.535095 -1.71875q-0.390625 -0.0625 -0.84375 -0.0625q-1.65625 0 -2.25 1.40625l0 7.0l-1.671875 0l0 -9.859375l1.640625 0l0.015625 1.140625q0.828125 -1.3125 2.359375 -1.3125q0.484375 0 0.75 0.125l0 1.5625zm0.9118042 3.328125q0 -1.453125 0.5625 -2.609375q0.578125 -1.15625 1.59375 -1.78125q1.015625 -0.625 2.3125 -0.625q2.015625 0 3.25 1.390625q1.25 1.390625 1.25 3.703125l0 0.125q0 1.4375 -0.546875 2.578125q-0.546875 1.140625 -1.578125 1.78125q-1.015625 0.640625 -2.359375 0.640625q-2.0 0 -3.25 -1.390625q-1.234375 -1.40625 -1.234375 -3.703125l0 -0.109375zm1.6875 0.203125q0 1.640625 0.765625 2.640625q0.765625 0.984375 2.03125 0.984375q1.296875 0 2.046875 -1.0q0.75 -1.015625 0.75 -2.828125q0 -1.625 -0.765625 -2.625q-0.765625 -1.015625 -2.046875 -1.015625q-1.25 0 -2.015625 1.0q-0.765625 0.984375 -0.765625 2.84375zm10.983643 -5.046875l0.046875 1.09375q1.078125 -1.265625 2.921875 -1.265625q2.0625 0 2.8125 1.578125q0.5 -0.71875 1.28125 -1.140625q0.796875 -0.4375 1.859375 -0.4375q3.25 0 3.296875 3.421875l0 6.609375l-1.671875 0l0 -6.5q0 -1.0625 -0.484375 -1.578125q-0.484375 -0.53125 -1.625 -0.53125q-0.9375 0 -1.5625 0.5625q-0.609375 0.5625 -0.71875 1.5l0 6.546875l-1.6875 0l0 -6.453125q0 -2.15625 -2.109375 -2.15625q-1.65625 0 -2.265625 1.40625l0 7.203125l-1.6875 0l0 -9.859375l1.59375 0zm18.851562 10.046875q-2.0 0 -3.265625 -1.3125q-1.25 -1.328125 -1.25 -3.53125l0 -0.3125q0 -1.46875 0.5625 -2.609375q0.5625 -1.15625 1.5625 -1.796875q1.015625 -0.65625 2.1875 -0.65625q1.921875 0 2.984375 1.265625q1.0625 1.265625 1.0625 3.625l0 0.6875l-6.671875 0q0.03125 1.46875 0.84375 2.375q0.828125 0.890625 2.078125 0.890625q0.890625 0 1.515625 -0.359375q0.625 -0.375 1.078125 -0.96875l1.03125 0.796875q-1.234375 1.90625 -3.71875 1.90625zm-0.203125 -8.84375q-1.015625 0 -1.71875 0.75q-0.6875 0.734375 -0.84375 2.078125l4.9375 0l0 -0.125q-0.078125 -1.28125 -0.703125 -1.984375q-0.609375 -0.71875 -1.671875 -0.71875zm8.290039 -3.59375l0 2.390625l1.84375 0l0 1.3125l-1.84375 0l0 6.109375q0 0.59375 0.234375 0.890625q0.25 0.296875 0.84375 0.296875q0.296875 0 0.8125 -0.109375l0 1.359375q-0.671875 0.1875 -1.296875 0.1875q-1.125 0 -1.703125 -0.6875q-0.578125 -0.6875 -0.578125 -1.9375l0 -6.109375l-1.796875 0l0 -1.3125l1.796875 0l0 -2.390625l1.6875 0zm5.4848633 3.59375q1.125 -1.375 2.921875 -1.375q3.125 0 3.15625 3.515625l0 6.515625l-1.6875 0l0 -6.515625q-0.015625 -1.078125 -0.5 -1.578125q-0.46875 -0.515625 -1.484375 -0.515625q-0.8125 0 -1.4375 0.4375q-0.609375 0.4375 -0.96875 1.15625l0 7.015625l-1.671875 0l0 -14.0l1.671875 0l0 5.34375zm12.681763 8.84375q-2.0 0 -3.265625 -1.3125q-1.25 -1.328125 -1.25 -3.53125l0 -0.3125q0 -1.46875 0.5625 -2.609375q0.5625 -1.15625 1.5625 -1.796875q1.015625 -0.65625 2.1875 -0.65625q1.921875 0 2.984375 1.265625q1.0625 1.265625 1.0625 3.625l0 0.6875l-6.671875 0q0.03125 1.46875 0.84375 2.375q0.828125 0.890625 2.078125 0.890625q0.890625 0 1.515625 -0.359375q0.625 -0.375 1.078125 -0.96875l1.03125 0.796875q-1.234375 1.90625 -3.71875 1.90625zm-0.203125 -8.84375q-1.015625 0 -1.71875 0.75q-0.6875 0.734375 -0.84375 2.078125l4.9375 0l0 -0.125q-0.078125 -1.28125 -0.703125 -1.984375q-0.609375 -0.71875 -1.671875 -0.71875zm12.086975 7.6875q-0.984375 1.15625 -2.890625 1.15625q-1.578125 0 -2.40625 -0.921875q-0.8125 -0.921875 -0.828125 -2.703125l0 -6.421875l1.6875 0l0 6.375q0 2.234375 1.828125 2.234375q1.921875 0 2.5625 -1.4375l0 -7.171875l1.6875 0l0 9.859375l-1.609375 0l-0.03125 -0.96875zm9.940857 -1.640625q0 -0.6875 -0.515625 -1.0625q-0.515625 -0.375 -1.796875 -0.640625q-1.28125 -0.28125 -2.03125 -0.65625q-0.75 -0.390625 -1.109375 -0.921875q-0.359375 -0.53125 -0.359375 -1.265625q0 -1.203125 1.015625 -2.03125q1.03125 -0.84375 2.625 -0.84375q1.671875 0 2.71875 0.859375q1.046875 0.859375 1.046875 2.21875l-1.6875 0q0 -0.703125 -0.59375 -1.203125q-0.59375 -0.5 -1.484375 -0.5q-0.921875 0 -1.4375 0.40625q-0.515625 0.390625 -0.515625 1.046875q0 0.609375 0.484375 0.921875q0.484375 0.3125 1.734375 0.59375q1.265625 0.28125 2.046875 0.671875q0.78125 0.390625 1.15625 0.9375q0.390625 0.546875 0.390625 1.34375q0 1.328125 -1.0625 2.125q-1.046875 0.796875 -2.734375 0.796875q-1.1875 0 -2.109375 -0.421875q-0.90625 -0.421875 -1.421875 -1.171875q-0.515625 -0.75 -0.515625 -1.625l1.6875 0q0.046875 0.84375 0.671875 1.34375q0.640625 0.5 1.6875 0.5q0.953125 0 1.53125 -0.390625q0.578125 -0.390625 0.578125 -1.03125z" fill-rule="nonzero"/><path fill="#eeeeee" d="m732.1942 288.2915l0 0c0 -4.6474 3.767456 -8.414856 8.414856 -8.414856l101.21753 0c2.2317505 0 4.3721313 0.88656616 5.9501953 2.4646606c1.578125 1.5780945 2.4646606 3.7184448 2.4646606 5.9501953l0 33.658447c0 4.6474 -3.767456 8.414886 -8.414856 8.414886l-101.21753 0c-4.6474 0 -8.414856 -3.7674866 -8.414856 -8.414886z" fill-rule="evenodd"/><path stroke="#cccccc" stroke-width="1.0" stroke-linejoin="round" stroke-linecap="butt" d="m732.1942 288.2915l0 0c0 -4.6474 3.767456 -8.414856 8.414856 -8.414856l101.21753 0c2.2317505 0 4.3721313 0.88656616 5.9501953 2.4646606c1.578125 1.5780945 2.4646606 3.7184448 2.4646606 5.9501953l0 33.658447c0 4.6474 -3.767456 8.414886 -8.414856 8.414886l-101.21753 0c-4.6474 0 -8.414856 -3.7674866 -8.414856 -8.414886z" fill-rule="evenodd"/><path fill="#000000" d="m754.64417 306.1345q-2.25 -0.65625 -3.28125 -1.59375q-1.03125 -0.9375 -1.03125 -2.328125q0 -1.5625 1.25 -2.59375q1.265625 -1.03125 3.265625 -1.03125q1.359375 0 2.4375 0.53125q1.078125 0.53125 1.65625 1.46875q0.59375 0.921875 0.59375 2.03125l-1.765625 0q0 -1.203125 -0.765625 -1.890625q-0.765625 -0.6875 -2.15625 -0.6875q-1.296875 0 -2.015625 0.5625q-0.71875 0.5625 -0.71875 1.578125q0 0.8125 0.6875 1.375q0.6875 0.5625 2.328125 1.03125q1.65625 0.453125 2.59375 1.015625q0.9375 0.5625 1.375 1.3125q0.453125 0.75 0.453125 1.75q0 1.609375 -1.25 2.59375q-1.25 0.96875 -3.359375 0.96875q-1.375 0 -2.5625 -0.515625q-1.171875 -0.53125 -1.8125 -1.4375q-0.640625 -0.921875 -0.640625 -2.078125l1.75 0q0 1.203125 0.890625 1.90625q0.890625 0.6875 2.375 0.6875q1.375 0 2.109375 -0.5625q0.75 -0.5625 0.75 -1.53125q0 -0.984375 -0.6875 -1.515625q-0.6875 -0.53125 -2.46875 -1.046875zm15.208679 1.09375q0 2.25 -1.03125 3.625q-1.015625 1.375 -2.78125 1.375q-1.796875 0 -2.828125 -1.140625l0 4.75l-1.671875 0l0 -13.65625l1.53125 0l0.078125 1.09375q1.03125 -1.265625 2.859375 -1.265625q1.78125 0 2.8125 1.34375q1.03125 1.328125 1.03125 3.71875l0 0.15625zm-1.671875 -0.203125q0 -1.65625 -0.71875 -2.625q-0.703125 -0.96875 -1.953125 -0.96875q-1.53125 0 -2.296875 1.359375l0 4.703125q0.765625 1.359375 2.328125 1.359375q1.203125 0 1.921875 -0.953125q0.71875 -0.96875 0.71875 -2.875zm9.904297 5.015625q-0.140625 -0.296875 -0.234375 -1.03125q-1.171875 1.21875 -2.8125 1.21875q-1.453125 0 -2.390625 -0.828125q-0.921875 -0.828125 -0.921875 -2.09375q0 -1.53125 1.15625 -2.375q1.171875 -0.859375 3.296875 -0.859375l1.640625 0l0 -0.78125q0 -0.890625 -0.53125 -1.40625q-0.515625 -0.53125 -1.546875 -0.53125q-0.90625 0 -1.515625 0.46875q-0.609375 0.453125 -0.609375 1.09375l-1.703125 0q0 -0.734375 0.515625 -1.421875q0.53125 -0.6875 1.421875 -1.078125q0.90625 -0.40625 1.984375 -0.40625q1.703125 0 2.671875 0.859375q0.96875 0.84375 1.0 2.328125l0 4.53125q0 1.359375 0.34375 2.171875l0 0.140625l-1.765625 0zm-2.796875 -1.28125q0.796875 0 1.5 -0.40625q0.71875 -0.421875 1.03125 -1.078125l0 -2.015625l-1.3125 0q-3.109375 0 -3.109375 1.8125q0 0.796875 0.53125 1.25q0.53125 0.4375 1.359375 0.4375zm11.632385 -7.0625q-0.390625 -0.0625 -0.84375 -0.0625q-1.65625 0 -2.25 1.40625l0 7.0l-1.671875 0l0 -9.859375l1.640625 0l0.015625 1.140625q0.828125 -1.3125 2.359375 -1.3125q0.484375 0 0.75 0.125l0 1.5625zm4.2842407 -3.90625l0 2.390625l1.84375 0l0 1.3125l-1.84375 0l0 6.109375q0 0.59375 0.234375 0.890625q0.25 0.296875 0.84375 0.296875q0.296875 0 0.8125 -0.109375l0 1.359375q-0.671875 0.1875 -1.296875 0.1875q-1.125 0 -1.703125 -0.6875q-0.578125 -0.6875 -0.578125 -1.9375l0 -6.109375l-1.796875 0l0 -1.3125l1.796875 0l0 -2.390625l1.6875 0zm9.891113 12.25q-0.140625 -0.296875 -0.234375 -1.03125q-1.171875 1.21875 -2.8125 1.21875q-1.453125 0 -2.390625 -0.828125q-0.921875 -0.828125 -0.921875 -2.09375q0 -1.53125 1.15625 -2.375q1.171875 -0.859375 3.296875 -0.859375l1.640625 0l0 -0.78125q0 -0.890625 -0.53125 -1.40625q-0.515625 -0.53125 -1.546875 -0.53125q-0.90625 0 -1.515625 0.46875q-0.609375 0.453125 -0.609375 1.09375l-1.703125 0q0 -0.734375 0.515625 -1.421875q0.53125 -0.6875 1.421875 -1.078125q0.90625 -0.40625 1.984375 -0.40625q1.703125 0 2.671875 0.859375q0.96875 0.84375 1.0 2.328125l0 4.53125q0 1.359375 0.34375 2.171875l0 0.140625l-1.765625 0zm-2.796875 -1.28125q0.796875 0 1.5 -0.40625q0.71875 -0.421875 1.03125 -1.078125l0 -2.015625l-1.3125 0q-3.109375 0 -3.109375 1.8125q0 0.796875 0.53125 1.25q0.53125 0.4375 1.359375 0.4375zm9.616699 -3.28125l-1.0625 1.09375l0 3.46875l-1.6875 0l0 -14.0l1.6875 0l0 8.46875l0.90625 -1.078125l3.0625 -3.25l2.046875 0l-3.828125 4.125l4.28125 5.734375l-1.984375 0l-3.421875 -4.5625zm12.783813 3.59375q-0.984375 1.15625 -2.890625 1.15625q-1.578125 0 -2.40625 -0.921875q-0.8125 -0.921875 -0.828125 -2.703125l0 -6.421875l1.6875 0l0 6.375q0 2.234375 1.828125 2.234375q1.921875 0 2.5625 -1.4375l0 -7.171875l1.6875 0l0 9.859375l-1.609375 0l-0.03125 -0.96875zm9.940857 -1.640625q0 -0.6875 -0.515625 -1.0625q-0.515625 -0.375 -1.796875 -0.640625q-1.28125 -0.28125 -2.03125 -0.65625q-0.75 -0.390625 -1.109375 -0.921875q-0.359375 -0.53125 -0.359375 -1.265625q0 -1.203125 1.015625 -2.03125q1.03125 -0.84375 2.625 -0.84375q1.671875 0 2.71875 0.859375q1.046875 0.859375 1.046875 2.21875l-1.6875 0q0 -0.703125 -0.59375 -1.203125q-0.59375 -0.5 -1.484375 -0.5q-0.921875 0 -1.4375 0.40625q-0.515625 0.390625 -0.515625 1.046875q0 0.609375 0.484375 0.921875q0.484375 0.3125 1.734375 0.59375q1.265625 0.28125 2.046875 0.671875q0.78125 0.390625 1.15625 0.9375q0.390625 0.546875 0.390625 1.34375q0 1.328125 -1.0625 2.125q-1.046875 0.796875 -2.734375 0.796875q-1.1875 0 -2.109375 -0.421875q-0.90625 -0.421875 -1.421875 -1.171875q-0.515625 -0.75 -0.515625 -1.625l1.6875 0q0.046875 0.84375 0.671875 1.34375q0.640625 0.5 1.6875 0.5q0.953125 0 1.53125 -0.390625q0.578125 -0.390625 0.578125 -1.03125z" fill-rule="nonzero"/></g></svg>