<svg xmlns="http://www.w3.org/2000/svg" height="800" width="1200" viewBox="-146.205 -44.925 1267.11 269.55"><path d="M962.1 144.1v-2.7h1.7c.9 0 2.2.1 2.2 1.2 0 1.1-.7 1.5-1.8 1.5h-2.1m0 1.9h1.2l2.7 4.7h2.9l-3-4.9c1.5.1 2.7-1 2.8-2.5v-.4c0-2.6-1.8-3.4-4.8-3.4h-4.3v11.2h2.5V146m12.6-.9c0-6.6-5.1-10.4-10.8-10.4-5.7 0-10.8 3.8-10.8 10.4 0 6.6 5.1 10.4 10.8 10.4 5.7 0 10.8-3.8 10.8-10.4m-3.2 0c.2 4.2-3.1 7.8-7.3 8h-.3c-4.4.2-8.1-3.3-8.3-7.7-.2-4.4 3.3-8.1 7.7-8.3 4.4-.2 8.1 3.3 8.3 7.7-.1.1-.1.2-.1.3zM578.2 34v118h33.3V34zm-262-.2v118.1h33.6V60.2l26.2.1c8.6 0 14.6 2.1 18.7 6.5 5.3 5.6 7.4 14.7 7.4 31.2v53.9h32.6V86.7c0-46.6-29.7-52.9-58.7-52.9zm315.7.2v118h54c28.8 0 38.2-4.8 48.3-15.5 7.2-7.5 11.8-24.1 11.8-42.2 0-16.6-3.9-31.4-10.8-40.6C723 37.2 705.2 34 678.6 34zm33 25.6h14.3c20.8 0 34.2 9.3 34.2 33.5s-13.4 33.6-34.2 33.6h-14.3zM530.2 34l-27.8 93.5L475.8 34h-36l38 118h48l38.4-118zm231.4 118h33.3V34h-33.3zM855 34l-46.5 117.9h32.8l7.4-20.9h55l7 20.8h35.7L899.5 34zm21.6 21.5l20.2 55.2h-41z"/><path d="M101.3 53.6V37.4c1.6-.1 3.2-.2 4.8-.2 44.4-1.4 73.5 38.2 73.5 38.2S148.2 119 114.5 119c-4.5 0-8.9-.7-13.1-2.1V67.7c17.3 2.1 20.8 9.7 31.1 27l23.1-19.4s-16.9-22.1-45.3-22.1c-3-.1-6 .1-9 .4m0-53.6v24.2l4.8-.3c61.7-2.1 102 50.6 102 50.6s-46.2 56.2-94.3 56.2c-4.2 0-8.3-.4-12.4-1.1v15c3.4.4 6.9.7 10.3.7 44.8 0 77.2-22.9 108.6-49.9 5.2 4.2 26.5 14.3 30.9 18.7-29.8 25-99.3 45.1-138.7 45.1-3.8 0-7.4-.2-11-.6v21.1h170.2V0zm0 116.9v12.8c-41.4-7.4-52.9-50.5-52.9-50.5s19.9-22 52.9-25.6v14h-.1c-17.3-2.1-30.9 14.1-30.9 14.1s7.7 27.3 31 35.2M27.8 77.4s24.5-36.2 73.6-40V24.2C47 28.6 0 74.6 0 74.6s26.6 77 101.3 84v-14c-54.8-6.8-73.5-67.2-73.5-67.2z" fill="#76B900"/></svg>