<svg xmlns="http://www.w3.org/2000/svg" height="800" width="1200" viewBox="-150 -46.1 1300 276.6"><path d="M987.1 147.9v-2.8h1.7c.9 0 2.3.1 2.3 1.2 0 1.2-.7 1.5-1.8 1.5h-2.2m0 2h1.2l2.8 4.8h3l-3.1-5c1.5-.1 2.9-.8 2.9-3 0-2.7-1.8-3.5-4.9-3.5h-4.4v11.5h2.6l-.1-4.8m12.9-.9c0-6.8-5.2-10.7-11.1-10.7-5.8 0-11.1 3.9-11.1 10.7 0 6.8 5.2 10.7 11.1 10.7 5.9 0 11.1-3.9 11.1-10.7m-3.2 0c0 4.9-3.6 8.2-7.9 8.2-4.4 0-7.9-3.3-7.9-8.2 0-4.9 3.6-8.2 7.9-8.2 4.3.1 7.9 3.4 7.9 8.2zm-403.6-114V156h34.2V34.9zm-268.8-.2v121.2h34.5V61.8l26.9.1c8.8 0 15 2.2 19.2 6.7 5.4 5.7 7.6 15.1 7.6 32v55.3H446V89c0-47.8-30.5-54.3-60.2-54.3h-61.4zm323.9.2V156h55.4c29.5 0 39.2-4.9 49.6-15.9 7.4-7.7 12.1-24.7 12.1-43.3 0-17-4-32.2-11.1-41.7-12.5-16.9-30.8-20.2-58.1-20.2zm33.9 26.3h14.7c21.3 0 35.1 9.5 35.1 34.4 0 24.8-13.7 34.4-35.1 34.4h-14.7zM544 34.9l-28.5 95.9-27.3-95.9h-36.9l39 121.1h49.2l39.3-121.1zm237.4 121h34.2v-121h-34.2zm95.8-121l-47.7 121h33.7l7.6-21.3h56.5l7.2 21.3h36.6l-48.2-121zM899.4 57l20.7 56.6H878zm-795.5-2V38.4c1.6-.1 3.3-.2 4.9-.2 45.6-1.4 75.4 39.1 75.4 39.1s-32.2 44.8-66.8 44.8c-5 0-9.4-.8-13.4-2.2V69.4c17.7 2.2 21.3 10 32 27.7l23.7-20s-17.3-22.7-46.5-22.7c-3.2.1-6.3.3-9.3.6m0-55v24.8c1.6-.1 3.3-.2 4.9-.3 63.3-2.2 104.6 51.9 104.6 51.9s-47.4 57.7-96.7 57.7c-4.5 0-8.7-.4-12.7-1.1v15.4c3.4.4 7 .7 10.6.7 46 0 79.2-23.5 111.4-51.2 5.3 4.3 27.2 14.7 31.7 19.2-30.6 25.6-101.9 46.3-142.3 46.3-3.9 0-7.6-.2-11.3-.6v21.6h174.7V0zm0 120v13.1c-42.5-7.6-54.3-51.8-54.3-51.8S70 58.7 103.9 55v14.4h-.1c-17.7-2.2-31.7 14.5-31.7 14.5s7.9 27.9 31.8 36.1M28.4 79.4s25.2-37.1 75.5-41V24.9C48.2 29.4 0 76.6 0 76.6s27.3 79 103.9 86.3v-14.4c-56.2-7.1-75.5-69.1-75.5-69.1z" fill="#fff"/></svg>