<?xml version="1.0" encoding="UTF-8"?>
<svg width="656" height="120" clip-rule="evenodd" fill-rule="evenodd" stroke-linejoin="round" stroke-miterlimit="2" version="1.1" viewBox="0 0 164 30" xml:space="preserve" xmlns="http://www.w3.org/2000/svg">
  <path d="m160.35 24.069v-0.449h0.288c0.157 0 0.371 0.012 0.371 0.204 0 0.208-0.11 0.245-0.296 0.245h-0.363m0 0.315h0.192l0.447 0.784h0.49l-0.494-0.816c0.255-0.019 0.465-0.14 0.465-0.484 0-0.427-0.295-0.565-0.793-0.565h-0.721v1.865h0.414v-0.784m2.098-0.146c0-1.095-0.851-1.73-1.8-1.73-0.955 0-1.805 0.635-1.805 1.73s0.85 1.733 1.805 1.733c0.948 0 1.8-0.638 1.8-1.733m-0.52 0c0 0.798-0.587 1.334-1.28 1.334v-6e-3c-0.713 6e-3 -1.289-0.53-1.289-1.328 0-0.797 0.577-1.331 1.289-1.331 0.694 0 1.28 0.534 1.28 1.331"/>
  <path d="m96.374 5.707 2e-3 19.66h5.552v-19.66h-5.554zm-43.677-0.026v19.686h5.603v-15.281l4.37 0.014c1.437 0 2.43 0.345 3.123 1.084 0.879 0.936 1.237 2.444 1.237 5.205v8.978h5.427v-10.877c0-7.763-4.948-8.81-9.789-8.81h-9.97l-1e-3 1e-3zm52.617 0.027v19.659h9.006c4.798 0 6.364-0.798 8.057-2.587 1.198-1.256 1.971-4.014 1.971-7.027 0-2.763-0.655-5.228-1.797-6.763-2.057-2.745-5.02-3.282-9.445-3.282h-7.792zm5.508 4.28h2.387c3.463 0 5.703 1.556 5.703 5.591 0 4.037-2.24 5.592-5.703 5.592h-2.387v-11.183zm-22.453-4.28-4.634 15.58-4.44-15.579-5.993-1e-3 6.34 19.659h8.003l6.391-19.659h-5.667zm38.563 19.659h5.553v-19.658l-5.555-1e-3 2e-3 19.659zm15.564-19.652-7.753 19.645h5.475l1.227-3.472h9.175l1.161 3.472h5.944l-7.812-19.646-7.417 1e-3zm3.604 3.585 3.364 9.204h-6.833l3.47-9.204h-1e-3z"/>
  <path d="m16.889 8.985v-2.705c0.262-0.02 0.528-0.033 0.798-0.042 7.4-0.232 12.255 6.359 12.255 6.359s-5.244 7.282-10.866 7.282c-0.743 3e-3 -1.482-0.115-2.187-0.35v-8.204c2.88 0.348 3.46 1.62 5.192 4.508l3.852-3.248s-2.812-3.688-7.552-3.688c-0.515 0-1.008 0.036-1.492 0.088zm0-8.938v4.043c0.265-0.021 0.531-0.038 0.798-0.048 10.29-0.346 16.995 8.44 16.995 8.44s-7.7 9.364-15.723 9.364c-0.735 0-1.424-0.068-2.07-0.183v2.498c0.553 0.07 1.126 0.112 1.724 0.112 7.465 0 12.864-3.812 18.092-8.325 0.867 0.694 4.416 2.383 5.145 3.123-4.971 4.16-16.555 7.515-23.123 7.515-0.614-2e-3 -1.227-0.034-1.838-0.096v3.51h28.375v-29.953h-28.375zm0 19.482v2.133c-6.905-1.23-8.822-8.408-8.822-8.408s3.316-3.674 8.822-4.269v2.34l-0.011-1e-3c-2.89-0.347-5.147 2.353-5.147 2.353s1.265 4.544 5.158 5.852zm-12.264-6.586s4.092-6.04 12.264-6.663v-2.192c-9.051 0.727-16.889 8.392-16.889 8.392s4.439 12.833 16.889 14.008v-2.328c-9.136-1.149-12.264-11.217-12.264-11.217z" fill="#76b900"/>
</svg>
