<?xml version="1.0" encoding="UTF-8"?>
<svg version="1.1" xmlns="http://www.w3.org/2000/svg" width="396" height="127">
<path d="M0 0 C2.23190436 0.0160779 4.46199848 0.00009979 6.69384766 -0.01904297 C16.26671683 -0.0330204 24.46818788 0.3243911 31.73681641 7.39111328 C37.04927422 14.62195863 37.45630928 20.59035988 36.73681641 29.39111328 C35.2224899 35.37125615 31.75490693 38.66253196 26.83447266 42.16455078 C21.88649924 45.05777919 17.58374624 45.70929967 11.90869141 45.72705078 C11.16024963 45.73370758 10.41180786 45.74036438 9.64068604 45.7472229 C8.06061243 45.7573181 6.48049645 45.76204089 4.90039062 45.76171875 C2.50789278 45.76607491 0.11726753 45.80237673 -2.27490234 45.84033203 C-11.54487174 45.91029612 -19.23834378 45.61063653 -26.60302734 39.42626953 C-31.57121388 33.29195608 -33.77463409 29.03492132 -33.57177734 21.01611328 C-32.75741646 14.08889158 -29.69489921 9.13281314 -24.43505859 4.68017578 C-16.49669478 -0.03144303 -8.9674845 -0.07691487 0 0 Z M-21.26318359 13.39111328 C-24.18567329 17.77484783 -24.82270759 21.16888927 -24.26318359 26.39111328 C-22.43738355 31.56421339 -20.0331832 33.76274615 -15.26318359 36.39111328 C-9.88145998 38.1437874 -4.04264183 37.57554583 1.54931641 37.57861328 C3.29438477 37.59698242 3.29438477 37.59698242 5.07470703 37.61572266 C14.93320028 37.8438607 14.93320028 37.8438607 23.69775391 33.91064453 C27.06897532 29.84096565 28.83489652 26.88359942 28.73681641 21.39111328 C27.14662119 16.17880675 25.26506213 13.40994376 20.73681641 10.39111328 C17.72993814 8.88767415 14.61529348 9.18695003 11.31494141 9.15283203 C10.57733582 9.14476028 9.83973022 9.13668854 9.07977295 9.12837219 C7.51625924 9.11453277 5.95271534 9.10380997 4.38916016 9.09594727 C2.00966196 9.07877812 -0.36843052 9.03489941 -2.74755859 8.99072266 C-4.26838173 8.98059145 -5.78921667 8.97207668 -7.31005859 8.96533203 C-8.01652527 8.94782394 -8.72299194 8.93031586 -9.4508667 8.91227722 C-14.52399386 8.9343043 -17.36692627 10.19518026 -21.26318359 13.39111328 Z " fill="#010101" transform="translate(53.26318359375,40.60888671875)"/>
<path d="M0 0 C0.74900574 0.00141495 1.49801147 0.0028299 2.26971436 0.00428772 C4.65380912 0.00986966 7.03780878 0.0224188 9.421875 0.03515625 C11.04166531 0.04017359 12.66145709 0.04473609 14.28125 0.04882812 C18.24482812 0.05983317 22.20833545 0.07708534 26.171875 0.09765625 C25.59335764 4.00264844 23.9818088 6.35932243 21.171875 9.09765625 C18.13500977 9.70947266 18.13500977 9.70947266 14.61328125 9.69921875 C12.70385742 9.72242188 12.70385742 9.72242188 10.75585938 9.74609375 C9.41535475 9.74020645 8.07485732 9.73237576 6.734375 9.72265625 C4.10986136 9.71756813 1.4879274 9.73516694 -1.13671875 9.76171875 C-2.30001709 9.7560791 -3.46331543 9.75043945 -4.66186523 9.74462891 C-8.22017934 10.14136899 -9.99542329 10.9393783 -12.828125 13.09765625 C-13.818125 14.41765625 -14.808125 15.73765625 -15.828125 17.09765625 C3.971875 17.59265625 3.971875 17.59265625 24.171875 18.09765625 C21.38969392 25.05310895 21.38969392 25.05310895 19.171875 27.09765625 C16.397718 27.52383386 14.00179411 27.70247911 11.22265625 27.70703125 C10.45003952 27.7235675 9.67742279 27.74010376 8.88139343 27.75714111 C6.41564038 27.80569483 3.95050428 27.82700713 1.484375 27.84765625 C-0.18818221 27.87580997 -1.86071058 27.90573656 -3.53320312 27.9375 C-7.63145962 28.01145506 -11.72937216 28.06098403 -15.828125 28.09765625 C-14.74792308 31.76364036 -14.74792308 31.76364036 -12.01220703 34.2355957 C-3.93938198 36.56083653 3.98542504 36.43691561 12.296875 36.28515625 C13.74477766 36.27007393 15.19269562 36.25639183 16.640625 36.24414062 C20.15136494 36.21143474 23.66151899 36.15985136 27.171875 36.09765625 C25.93198122 39.53120826 24.83048384 42.54607151 22.171875 45.09765625 C19.14428711 45.63110352 19.14428711 45.63110352 15.44921875 45.6640625 C14.78910294 45.67026108 14.12898712 45.67645966 13.4488678 45.68284607 C12.04934154 45.68994754 10.64973087 45.6867642 9.25024414 45.67407227 C7.13978647 45.66035393 5.03390056 45.69407491 2.92382812 45.73242188 C-5.24387424 45.78003851 -12.09828713 45.06179828 -18.828125 40.09765625 C-23.73006942 35.07341155 -26.62747844 29.91317373 -26.92578125 22.75390625 C-26.6635722 15.95744762 -24.41619154 11.1001288 -19.828125 6.09765625 C-13.43300312 0.9545544 -8.09585242 -0.05778886 0 0 Z " fill="#010000" transform="translate(336.828125,40.90234375)"/>
<path d="M0 0 C6.435 -0.0825 12.87 -0.165 19.5 -0.25 C22.52317383 -0.30462402 22.52317383 -0.30462402 25.60742188 -0.36035156 C27.22785379 -0.37204801 28.84829758 -0.38223757 30.46875 -0.390625 C31.29149414 -0.41108887 32.11423828 -0.43155273 32.96191406 -0.45263672 C38.7836641 -0.45610618 43.13208265 0.73866372 48 4 C51.54711702 7.63579495 52.28578227 10.56629785 52.5 15.5 C52.30691801 20.40028768 51.41113589 23.31228553 48 27 C44.3071561 29.79458457 40.45859337 30.86349581 36 32 C37.13888672 32.90492187 37.13888672 32.90492187 38.30078125 33.828125 C39.79158203 35.02695313 39.79158203 35.02695313 41.3125 36.25 C42.29863281 37.03890625 43.28476563 37.8278125 44.30078125 38.640625 C46.6018547 40.65198298 48.30605396 42.4793158 50 45 C43.9043253 45.9733416 39.00695104 46.358848 33.74609375 42.796875 C30.64982028 40.04099626 27.83858234 37.01726277 25 34 C23.51927439 32.64529359 22.02198801 31.30817823 20.5 30 C19.9121875 29.484375 19.324375 28.96875 18.71875 28.4375 C16.95838967 26.92485313 16.95838967 26.92485313 14.78125 25.4375 C14.1934375 24.963125 13.605625 24.48875 13 24 C13 23.34 13 22.68 13 22 C13.80743652 21.98018066 14.61487305 21.96036133 15.44677734 21.93994141 C19.08985875 21.84494101 22.73234686 21.73516088 26.375 21.625 C27.64601563 21.5940625 28.91703125 21.563125 30.2265625 21.53125 C32.04414062 21.47324219 32.04414062 21.47324219 33.8984375 21.4140625 C35.01911621 21.3826416 36.13979492 21.3512207 37.29443359 21.31884766 C40.14710412 21.26588797 40.14710412 21.26588797 42 19 C42.33333333 15.5 42.33333333 15.5 42 12 C39.13454405 9.13454405 37.03185244 9.68370372 33.0234375 9.5859375 C32.33819 9.56657135 31.6529425 9.5472052 30.94692993 9.5272522 C28.75641356 9.46743169 26.5658447 9.42106244 24.375 9.375 C22.89060198 9.33682237 21.40622616 9.29777076 19.921875 9.2578125 C16.28145315 9.16172916 12.64086564 9.07770718 9 9 C9.00523682 10.05501709 9.01047363 11.11003418 9.01586914 12.19702148 C9.03391901 16.0975663 9.04543195 19.9981074 9.05493164 23.89868164 C9.0599719 25.58944316 9.06680405 27.28020029 9.07543945 28.97094727 C9.08751857 31.39600707 9.09323123 33.82100944 9.09765625 36.24609375 C9.10281754 37.00651474 9.10797882 37.76693573 9.11329651 38.55039978 C9.11349238 40.3673257 9.06197277 42.18413127 9 44 C8.505 44.495 8.505 44.495 8 45 C5.36 45 2.72 45 0 45 C0 30.15 0 15.3 0 0 Z " fill="#000000" transform="translate(95,41)"/>
<path d="M0 0 C4.08235814 0.56032367 5.67342173 2.38504794 8.1875 5.4375 C10.18533366 8.28064057 12.00162803 11.22270266 13.8125 14.1875 C14.86218851 15.88218775 15.91299573 17.57618301 16.96484375 19.26953125 C17.49577637 20.12627441 18.02670898 20.98301758 18.57373047 21.86572266 C20.14647576 24.37212188 21.753026 26.85201738 23.37890625 29.32421875 C23.88276855 30.09088867 24.38663086 30.85755859 24.90576172 31.64746094 C25.86555915 33.1026274 26.82926389 34.55522626 27.79736328 36.00488281 C28.22903809 36.66198242 28.66071289 37.31908203 29.10546875 37.99609375 C29.67430786 38.85158813 29.67430786 38.85158813 30.25463867 39.72436523 C31.27765164 41.6030572 31.75488498 43.34981127 32.1875 45.4375 C28.78725479 45.78790695 25.57407418 45.968311 22.1875 45.4375 C18.1875 41.05654762 18.1875 41.05654762 18.1875 37.4375 C17.48141602 37.4689209 16.77533203 37.5003418 16.04785156 37.53271484 C12.84472776 37.65753239 9.64211487 37.73550124 6.4375 37.8125 C5.32632813 37.86277344 4.21515625 37.91304687 3.0703125 37.96484375 C-4.94966057 38.10978302 -4.94966057 38.10978302 -7.47070312 36.14550781 C-8.96935179 33.97154216 -9.8125 32.09814375 -9.8125 29.4375 C0.5825 28.9425 0.5825 28.9425 11.1875 28.4375 C7.8875 23.1575 4.5875 17.8775 1.1875 12.4375 C-1.67663917 15.30163917 -3.39992158 17.08556746 -5.36328125 20.37890625 C-6.03423828 21.49483154 -6.03423828 21.49483154 -6.71875 22.63330078 C-7.1828125 23.41431152 -7.646875 24.19532227 -8.125 25 C-8.61355469 25.79905762 -9.10210937 26.59811523 -9.60546875 27.42138672 C-11.74264706 30.92186428 -13.83674824 34.41121677 -15.69921875 38.06640625 C-17.23050414 40.91022197 -18.4755859 43.20615491 -20.8125 45.4375 C-24.64388499 46.31845791 -27.96236476 46.12676472 -31.8125 45.4375 C-27.8859897 37.76005507 -23.37711737 30.6365681 -18.55078125 23.51171875 C-15.07087379 18.36723233 -11.72984387 13.13330891 -8.3918457 7.89599609 C-7.95316162 7.21230957 -7.51447754 6.52862305 -7.0625 5.82421875 C-6.48242188 4.91482544 -6.48242188 4.91482544 -5.890625 3.98706055 C-4.0556207 1.3496574 -3.24436315 0.50467871 0 0 Z " fill="#010101" transform="translate(178.8125,40.5625)"/>
<path d="M0 0 C0.76695694 0.00424484 1.53391388 0.00848969 2.32411194 0.01286316 C4.74899957 0.02951805 7.17302423 0.06714322 9.59765625 0.10546875 C11.25194103 0.12053274 12.90623898 0.13421813 14.56054688 0.14648438 C18.59407728 0.17937798 22.62697098 0.23106626 26.66015625 0.29296875 C25.42080476 3.72501904 24.31898311 6.7432796 21.66015625 9.29296875 C18.66088867 9.77539062 18.66088867 9.77539062 15.015625 9.76171875 C13.69884766 9.77589844 12.38207031 9.79007813 11.02539062 9.8046875 C8.9386825 9.80223745 6.85206828 9.79298841 4.76538086 9.78369141 C2.74420792 9.78129637 0.72415797 9.80230901 -1.296875 9.82421875 C-2.5031958 9.81970703 -3.7095166 9.81519531 -4.95239258 9.81054688 C-9.00304768 10.38741855 -11.15736271 11.77248843 -14.33984375 14.29296875 C-17.08517558 18.3078182 -16.97550705 22.59883978 -16.33984375 27.29296875 C-14.52930806 31.36667404 -13.12919321 32.87973258 -9.18359375 34.9453125 C-2.55164859 37.28972623 4.72277829 36.60561546 11.66015625 36.48046875 C13.11717368 36.46539616 14.57420618 36.4517123 16.03125 36.43945312 C19.5745355 36.40664778 23.11724796 36.35500782 26.66015625 36.29296875 C26.00732227 39.81827225 24.93463433 42.49930012 22.66015625 45.29296875 C19.60083008 45.90820312 19.60083008 45.90820312 15.8671875 45.88671875 C15.20232834 45.88675903 14.53746918 45.88679932 13.85246277 45.88684082 C12.44443321 45.8814822 11.03640478 45.86388385 9.62866211 45.83496094 C7.49692876 45.7934415 5.36839395 45.79386457 3.23632812 45.80078125 C-4.8721778 45.76385212 -11.75847281 45.56885169 -18.546875 40.71484375 C-23.76038456 35.28569024 -26.43889636 30.5234175 -26.77734375 22.85546875 C-26.57224142 16.61693955 -24.99523703 12.18498123 -20.76171875 7.57421875 C-14.46745794 1.79030341 -8.37737038 -0.17782359 0 0 Z " fill="#010101" transform="translate(233.33984375,40.70703125)"/>
<path d="M0 0 C2.97 0 5.94 0 9 0 C9 12.21 9 24.42 9 37 C22.2 37 35.4 37 49 37 C47.35 39.64 45.7 42.28 44 45 C40.47583768 45.78633851 38.15720027 46.01654154 34.6484375 45.88671875 C33.75258942 45.88251419 32.85674133 45.87830963 31.93374634 45.87397766 C30.04574305 45.85755192 28.15782142 45.82191643 26.27050781 45.76831055 C23.37720795 45.68756162 20.4880739 45.66584861 17.59375 45.65429688 C15.75776569 45.63104554 13.92181986 45.60446691 12.0859375 45.57421875 C11.22028168 45.56460617 10.35462585 45.55499359 9.46273804 45.54508972 C8.25600937 45.50669731 8.25600937 45.50669731 7.02490234 45.4675293 C5.96497574 45.44132759 5.96497574 45.44132759 4.88363647 45.41459656 C2.3942062 44.86666216 1.49892933 44.045863 0 42 C-0.36076355 40.04475403 -0.36076355 40.04475403 -0.34057617 37.80395508 C-0.34034958 36.96331009 -0.34012299 36.1226651 -0.33988953 35.25654602 C-0.32440567 34.35333115 -0.30892181 33.45011627 -0.29296875 32.51953125 C-0.28872391 31.59154221 -0.28447906 30.66355316 -0.28010559 29.70744324 C-0.26330662 26.74216757 -0.22565216 23.7775704 -0.1875 20.8125 C-0.17245474 18.80274419 -0.15876606 16.79297773 -0.14648438 14.78320312 C-0.11339908 9.85520714 -0.06160833 4.92771862 0 0 Z " fill="#000000" transform="translate(264,41)"/>
</svg>
