<svg xmlns="http://www.w3.org/2000/svg" viewBox="0 0 1234.67 566.56"><g data-name="Layer 2"><path d="M.11 242.55a17.23 17.23 0 0 0 32.48 5.87l154.94 24.94a6.78 6.78 0 0 0 0 1.19c0 .25.08.49.13.73L61.92 304.71a10.7 10.7 0 0 0-.5-1.68 9.57 9.57 0 1 0-5.33 12.44 9.41 9.41 0 0 0 3.26-2.17l57.56 60a9.57 9.57 0 0 0 9.78 16.15 9.77 9.77 0 0 0 2.29-1.32l93.4 136.93a9.58 9.58 0 1 0 14.74 1.77L365 466.5a6.22 6.22 0 0 0 11-5.6 6.27 6.27 0 0 0-1-1.73l89.26-106.58a17.3 17.3 0 0 0 3.06 2.33L407.77 496.7a6.22 6.22 0 1 0 3.85 4.54l302.3-72.71a8.9 8.9 0 0 0 .43 1.39 9.58 9.58 0 0 0 12.44 5.33 9.46 9.46 0 0 0 4.26-3.37l188.52 109.9a17.24 17.24 0 1 0 27.18-5.07l90.76-110.33a9.55 9.55 0 0 0 12.16-5l91 9.54a6.22 6.22 0 1 0 11.94-1.43 6.23 6.23 0 0 0-5.92-3.91l-3.36-21.46 57.39-9.34a16.49 16.49 0 0 0 .71 2.23 17.28 17.28 0 1 0 6.07-20.46l-93.08-165.28a6.26 6.26 0 0 0 3.32-5.22l56.26-25.51a9.56 9.56 0 1 0-1-7.9l-79.59-5.2a17.85 17.85 0 0 0-.06-3 17.25 17.25 0 1 0-5 14.12l18.23 23.37a6.21 6.21 0 0 0-.87 6.13 6.07 6.07 0 0 0 .87 1.51l-93.11 34.92a9.58 9.58 0 0 0-8.25-4.14L904.34 37.53a9.58 9.58 0 1 0-8.49.35l-63.37 135.56a9.57 9.57 0 1 0 2.89 16.23l43 83L767.89 295a10 10 0 0 0-.46-1.57 9.49 9.49 0 0 0-3.15-4.09l29.14-61.61a6.15 6.15 0 0 0 2.72-.43 6.21 6.21 0 1 0-5.33-.34l-39.28 42.6L689.8 81.8a6.22 6.22 0 1 0-8-5.23 6.14 6.14 0 0 0 .76 2.34L590.44 171a9.7 9.7 0 0 0-4.13-4l29.41-129.77a6.13 6.13 0 0 0 2.31.18 6.22 6.22 0 1 0-6.18-9.11L273.78 11.11a9.88 9.88 0 0 0 .07-2.61 9.58 9.58 0 1 0-8.93 10.62l13.14 44.4L93.84 38.61a6.08 6.08 0 0 0 .18-2.3A6.22 6.22 0 1 0 84.17 42L21.66 224A17.21 17.21 0 0 0 .11 242.55zM33 247.48a17.14 17.14 0 0 0 1.34-8.8 15.7 15.7 0 0 0-.32-1.84l154.23 7.57 4.92 23.25H193a6.2 6.2 0 0 0-5.34 4.7zm27 65.07a9.56 9.56 0 0 0 2.05-6.85L188 276.23a6.22 6.22 0 1 0 6.22-8.58l-4.91-23.19 136.14 6.68a9.49 9.49 0 0 0 1.35 3.81L131 375.19a9.57 9.57 0 0 0-11.45-3.49 9.86 9.86 0 0 0-1.87 1zm103.37-204.22l163.15 137.05a9.5 9.5 0 0 0-1.15 4.76l-136.28-6.69-28.2-133.18a6.24 6.24 0 0 0 2.48-1.94zm419.74 76.75a9.24 9.24 0 0 0 2.42-.61l92.64 164.62-21.17 23a6.22 6.22 0 0 0-10.44 3.09l-153.31-33a17.19 17.19 0 0 0-8.54-16.95l95-140.37a9.48 9.48 0 0 0 3.4.22zM755 288.06a9.56 9.56 0 0 0-5.33 12.44 9.78 9.78 0 0 0 1.53 2.58l-68.8 51.44-3-5.28 71.72-77.78 5.31 16.16a9.65 9.65 0 0 0-1.43.44zm-73.41 67.07l-23.83 17.81-.09-.12 21-22.81zM551 429.94a6.26 6.26 0 0 0-5.35-1.64l-59.6-74.09a17.22 17.22 0 0 0 7-11l153.35 33a6.13 6.13 0 0 0 .43 2.65 5.33 5.33 0 0 0 .37.76zm-81.26-105.79a17.2 17.2 0 0 0-6.22 27.72l-89.26 106.59a6.28 6.28 0 0 0-3.75-1.47L336 259.45a9.56 9.56 0 0 0 4.42-17.32l98.39-151.68a6.26 6.26 0 0 0 2.41.32L474 323.07a17 17 0 0 0-4.26 1.08zm-35-238.44a6.25 6.25 0 0 0 3.14 4.29l-98.27 151.59a9.54 9.54 0 0 0-5.75-1.17 9.83 9.83 0 0 0-2.26.55L279.46 64.72zm-305 301.8A9.57 9.57 0 0 0 132 377a6.91 6.91 0 0 0-.47-1l195.8-120.28a9.71 9.71 0 0 0 3.33 2.74L229.82 522.44a9.52 9.52 0 0 0-4.34.64 10 10 0 0 0-2.34 1.35zM236.54 526a9.64 9.64 0 0 0-5.7-3.45L331.6 258.9a9.57 9.57 0 0 0 3.43.61L369.5 457a6.22 6.22 0 0 0-5 8.48 1 1 0 0 0 0 .1zm174.8-25.75v-.08a6.12 6.12 0 0 0-2.64-3.06l59.49-141.73a17.17 17.17 0 0 0 14.37.74 16.87 16.87 0 0 0 2.71-1.39l59.39 73.83-.2.07a6.22 6.22 0 1 0 8.08 3.47 6 6 0 0 0-.8-1.42l96.07-50.32a6.22 6.22 0 0 0 10.63-6.21c0-.12-.11-.24-.17-.37L682.06 356l35.33 62.79a9.55 9.55 0 0 0-3.64 8.76zM731.59 431a9.62 9.62 0 0 0 .8-7.47l126.93-37a6.21 6.21 0 0 0 10.12.16l94.84 58a6.2 6.2 0 0 0 2.73 6.67l-28.61 81.08a17.16 17.16 0 0 0-18.4 8.44zm233 12.7L870 385.86a6.2 6.2 0 0 0 .27-5.12l42.67-41.17 52.91 102.3a6.32 6.32 0 0 0-1.25 1.87zM946 536a17.24 17.24 0 0 0-6.63-3.37l28.52-80.81a6.22 6.22 0 1 0-1.32-10.68l-52.92-102.3 85.2-82.19a9.56 9.56 0 0 0 10.34 2.14l.61-.28L1039.19 408a9 9 0 0 0-1.8.52 9.57 9.57 0 0 0-.82 17.4zm50.06-286a9.56 9.56 0 0 0 2.11 5.91l-85 82-33.36-64.49zm149.64 175.67a5.65 5.65 0 0 0-1.18.34 6.19 6.19 0 0 0-3.63 3.91L1050 420.4a9.71 9.71 0 0 0 .3-1.18l92-15zm54.8-31.88l-57.33 9.33-30-191.37.35-.11 93.2 165.5a17.23 17.23 0 0 0-6.21 16.64zm-27.75-220.15a9.51 9.51 0 0 0 .49 5.45c.08.2.17.39.26.58L1117.7 205a5.91 5.91 0 0 0-.38-1.53 6.23 6.23 0 0 0-8.09-3.47 6.16 6.16 0 0 0-1.91 1.21l-18.23-23.36a17.26 17.26 0 0 0 4.24-9.38zm-65.39 36.72a6.21 6.21 0 0 0 4.79 1.57l30 191.35-91.72 14.92a9.55 9.55 0 0 0-10.29-10.29L1010.72 258a9.57 9.57 0 0 0 3.81-11.65 10.2 10.2 0 0 0-.47-1zM836.12 189a9.56 9.56 0 0 0-2.73-15.11l63.4-135.6a9.58 9.58 0 0 0 6.65-.27l100.77 202.47a9.52 9.52 0 0 0-8.1 8.52l-116.77 23.5zm42.67 84.68l33.63 65-42.66 41.12a6.22 6.22 0 0 0-11.1 5.53c0 .11.1.22.15.33L732 422.63a9.58 9.58 0 0 0-12.36-5.16 10.57 10.57 0 0 0-1.46.75l-35.31-62.82 69-51.59a9.56 9.56 0 0 0 16.18-7.81zm-87-46.27a6.13 6.13 0 0 0 .61.18l-28.95 61.2a9.57 9.57 0 0 0-6-1.29l-5.54-16.83zM683.08 79.75a6.21 6.21 0 0 0 5.55 2.3h.19l61.94 188.35-71.87 77.95-92.44-164.29a9.57 9.57 0 0 0 5.1-9.57 9.38 9.38 0 0 0-.66-2.55zM265.93 19a9.55 9.55 0 0 0 7.63-6.9l337.87 17.18a6.32 6.32 0 0 0-.28 2.65 6.22 6.22 0 0 0 3.62 5l-29.4 129.67a9.42 9.42 0 0 0-4.41-.54 9.57 9.57 0 0 0-2.22 18.49l-94.92 140.2A17.24 17.24 0 0 0 475 323L442.21 90.63a6.22 6.22 0 1 0-7.59-5.94l-155.48-21zM85 42.57a6.15 6.15 0 0 0 3.49.63 6.24 6.24 0 0 0 5-3.63l184.87 25 52.3 176.8a9.6 9.6 0 0 0-3.62 3.15l-163.13-137a6.3 6.3 0 0 0 .7-3.63 6.22 6.22 0 1 0-5.49 6.88 6.66 6.66 0 0 0 .8-.15l28.14 132.78-154.29-7.58a17.23 17.23 0 0 0-11.15-11.56z" fill="#fff" opacity=".05" data-name="Layer 1"/></g></svg>