<svg xmlns="http://www.w3.org/2000/svg" viewBox="0 0 114.56 122.83"><g data-name="Layer 2"><path d="M65.46 18.9v18.89l32.73 18.9v-18.9zM0 37.79v18.9l16.37 9.45v-18.9zm49.1 9.45l-16.37 9.45v56.69l16.37 9.45V85l16.36 9.45V75.59L49.1 66.14z" fill="#e55b2d"/><path d="M65.46 18.9L16.37 47.24v18.9l32.73-18.9v18.9l16.36-9.45zm49.1 9.45l-16.37 9.44v18.9l16.37-9.45zM81.83 66.14l-16.37 9.45v18.9L81.83 85zM65.46 94.49L49.1 85v37.79l16.36-9.45z" fill="#ed8e24"/><path d="M65.46 0L0 37.79l16.37 9.45L65.46 18.9l32.73 18.89 16.37-9.44zm0 56.69L49.1 66.14l16.36 9.45 16.37-9.45z" fill="#f8bf3c"/></g></svg>